<?xml version="1.0" encoding="utf-8" standalone="no"?>
<!DOCTYPE svg PUBLIC "-//W3C//DTD SVG 1.1//EN"
  "http://www.w3.org/Graphics/SVG/1.1/DTD/svg11.dtd">
<svg xmlns:xlink="http://www.w3.org/1999/xlink" width="720pt" height="331.2pt" viewBox="0 0 720 331.2" xmlns="http://www.w3.org/2000/svg" version="1.1">
 <metadata>
  <rdf:RDF xmlns:dc="http://purl.org/dc/elements/1.1/" xmlns:cc="http://creativecommons.org/ns#" xmlns:rdf="http://www.w3.org/1999/02/22-rdf-syntax-ns#">
   <cc:Work>
    <dc:type rdf:resource="http://purl.org/dc/dcmitype/StillImage"/>
    <dc:date>2026-09-20T21:39:08.688091</dc:date>
    <dc:format>image/svg+xml</dc:format>
    <dc:creator>
     <cc:Agent>
      <dc:title>Matplotlib v3.11.2, https://matplotlib.org/</dc:title>
     </cc:Agent>
    </dc:creator>
   </cc:Work>
  </rdf:RDF>
 </metadata>
 <defs>
  <style type="text/css">*{stroke-linejoin: round; stroke-linecap: butt}</style>
 </defs>
 <g id="figure_1">
  <g id="patch_1">
   <path d="M 0 331.2 
L 720 331.2 
L 720 0 
L 0 0 
z
" style="fill: #fcfcfb"/>
  </g>
  <g id="axes_1">
   <g id="patch_2">
    <path d="M 69.56375 270.83625 
L 702.72 270.83625 
L 702.72 17.28 
L 69.56375 17.28 
z
" style="fill: #fcfcfb"/>
   </g>
   <g id="matplotlib.axis_1">
    <g id="xtick_1">
     <g id="line2d_1">
      <path d="M 98.34358 270.83625 
L 98.34358 17.28 
" clip-path="url(#p845093e1cc)" style="fill: none; stroke: #e4e3df; stroke-width: 0.8; stroke-linecap: square"/>
     </g>
     <g id="line2d_2">
      <defs>
       <path id="mf622aa418a" d="M 0 0 
L 0 3.5 
" style="stroke: #52514e; stroke-width: 0.8"/>
      </defs>
      <g>
       <use xlink:href="#mf622aa418a" x="98.34358" y="270.83625" style="fill: #52514e; stroke: #52514e; stroke-width: 0.8"/>
      </g>
     </g>
     <g id="text_1">
      <!-- −3 -->
      <g style="fill: #52514e" transform="translate(86.54983 289.9925) scale(0.16 -0.16)">
       <defs>
        <path id="DejaVuSans-c9c" d="M 678 2272 
L 4684 2272 
L 4684 1741 
L 678 1741 
L 678 2272 
z
" transform="scale(0.015625)"/>
        <path id="DejaVuSans-16" d="M 2597 2516 
Q 3050 2419 3304 2112 
Q 3559 1806 3559 1356 
Q 3559 666 3084 287 
Q 2609 -91 1734 -91 
Q 1441 -91 1130 -33 
Q 819 25 488 141 
L 488 750 
Q 750 597 1062 519 
Q 1375 441 1716 441 
Q 2309 441 2620 675 
Q 2931 909 2931 1356 
Q 2931 1769 2642 2001 
Q 2353 2234 1838 2234 
L 1294 2234 
L 1294 2753 
L 1863 2753 
Q 2328 2753 2575 2939 
Q 2822 3125 2822 3475 
Q 2822 3834 2567 4026 
Q 2313 4219 1838 4219 
Q 1578 4219 1281 4162 
Q 984 4106 628 3988 
L 628 4550 
Q 988 4650 1302 4700 
Q 1616 4750 1894 4750 
Q 2613 4750 3031 4423 
Q 3450 4097 3450 3541 
Q 3450 3153 3228 2886 
Q 3006 2619 2597 2516 
z
" transform="scale(0.015625)"/>
       </defs>
       <use xlink:href="#DejaVuSans-c9c"/>
       <use xlink:href="#DejaVuSans-16" transform="translate(83.796875 0)"/>
      </g>
     </g>
    </g>
    <g id="xtick_2">
     <g id="line2d_3">
      <path d="M 180.571664 270.83625 
L 180.571664 17.28 
" clip-path="url(#p845093e1cc)" style="fill: none; stroke: #e4e3df; stroke-width: 0.8; stroke-linecap: square"/>
     </g>
     <g id="line2d_4">
      <g>
       <use xlink:href="#mf622aa418a" x="180.571664" y="270.83625" style="fill: #52514e; stroke: #52514e; stroke-width: 0.8"/>
      </g>
     </g>
     <g id="text_2">
      <!-- −2 -->
      <g style="fill: #52514e" transform="translate(168.777914 289.9925) scale(0.16 -0.16)">
       <defs>
        <path id="DejaVuSans-15" d="M 1228 531 
L 3431 531 
L 3431 0 
L 469 0 
L 469 531 
Q 828 903 1448 1529 
Q 2069 2156 2228 2338 
Q 2531 2678 2651 2914 
Q 2772 3150 2772 3378 
Q 2772 3750 2511 3984 
Q 2250 4219 1831 4219 
Q 1534 4219 1204 4116 
Q 875 4013 500 3803 
L 500 4441 
Q 881 4594 1212 4672 
Q 1544 4750 1819 4750 
Q 2544 4750 2975 4387 
Q 3406 4025 3406 3419 
Q 3406 3131 3298 2873 
Q 3191 2616 2906 2266 
Q 2828 2175 2409 1742 
Q 1991 1309 1228 531 
z
" transform="scale(0.015625)"/>
       </defs>
       <use xlink:href="#DejaVuSans-c9c"/>
       <use xlink:href="#DejaVuSans-15" transform="translate(83.796875 0)"/>
      </g>
     </g>
    </g>
    <g id="xtick_3">
     <g id="line2d_5">
      <path d="M 262.799748 270.83625 
L 262.799748 17.28 
" clip-path="url(#p845093e1cc)" style="fill: none; stroke: #e4e3df; stroke-width: 0.8; stroke-linecap: square"/>
     </g>
     <g id="line2d_6">
      <g>
       <use xlink:href="#mf622aa418a" x="262.799748" y="270.83625" style="fill: #52514e; stroke: #52514e; stroke-width: 0.8"/>
      </g>
     </g>
     <g id="text_3">
      <!-- −1 -->
      <g style="fill: #52514e" transform="translate(251.005998 289.9925) scale(0.16 -0.16)">
       <defs>
        <path id="DejaVuSans-14" d="M 794 531 
L 1825 531 
L 1825 4091 
L 703 3866 
L 703 4441 
L 1819 4666 
L 2450 4666 
L 2450 531 
L 3481 531 
L 3481 0 
L 794 0 
L 794 531 
z
" transform="scale(0.015625)"/>
       </defs>
       <use xlink:href="#DejaVuSans-c9c"/>
       <use xlink:href="#DejaVuSans-14" transform="translate(83.796875 0)"/>
      </g>
     </g>
    </g>
    <g id="xtick_4">
     <g id="line2d_7">
      <path d="M 345.027833 270.83625 
L 345.027833 17.28 
" clip-path="url(#p845093e1cc)" style="fill: none; stroke: #e4e3df; stroke-width: 0.8; stroke-linecap: square"/>
     </g>
     <g id="line2d_8">
      <g>
       <use xlink:href="#mf622aa418a" x="345.027833" y="270.83625" style="fill: #52514e; stroke: #52514e; stroke-width: 0.8"/>
      </g>
     </g>
     <g id="text_4">
      <!-- 0 -->
      <g style="fill: #52514e" transform="translate(339.937833 289.9925) scale(0.16 -0.16)">
       <defs>
        <path id="DejaVuSans-13" d="M 2034 4250 
Q 1547 4250 1301 3770 
Q 1056 3291 1056 2328 
Q 1056 1369 1301 889 
Q 1547 409 2034 409 
Q 2525 409 2770 889 
Q 3016 1369 3016 2328 
Q 3016 3291 2770 3770 
Q 2525 4250 2034 4250 
z
M 2034 4750 
Q 2819 4750 3233 4129 
Q 3647 3509 3647 2328 
Q 3647 1150 3233 529 
Q 2819 -91 2034 -91 
Q 1250 -91 836 529 
Q 422 1150 422 2328 
Q 422 3509 836 4129 
Q 1250 4750 2034 4750 
z
" transform="scale(0.015625)"/>
       </defs>
       <use xlink:href="#DejaVuSans-13"/>
      </g>
     </g>
    </g>
    <g id="xtick_5">
     <g id="line2d_9">
      <path d="M 427.255917 270.83625 
L 427.255917 17.28 
" clip-path="url(#p845093e1cc)" style="fill: none; stroke: #e4e3df; stroke-width: 0.8; stroke-linecap: square"/>
     </g>
     <g id="line2d_10">
      <g>
       <use xlink:href="#mf622aa418a" x="427.255917" y="270.83625" style="fill: #52514e; stroke: #52514e; stroke-width: 0.8"/>
      </g>
     </g>
     <g id="text_5">
      <!-- 1 -->
      <g style="fill: #52514e" transform="translate(422.165917 289.9925) scale(0.16 -0.16)">
       <use xlink:href="#DejaVuSans-14"/>
      </g>
     </g>
    </g>
    <g id="xtick_6">
     <g id="line2d_11">
      <path d="M 509.484002 270.83625 
L 509.484002 17.28 
" clip-path="url(#p845093e1cc)" style="fill: none; stroke: #e4e3df; stroke-width: 0.8; stroke-linecap: square"/>
     </g>
     <g id="line2d_12">
      <g>
       <use xlink:href="#mf622aa418a" x="509.484002" y="270.83625" style="fill: #52514e; stroke: #52514e; stroke-width: 0.8"/>
      </g>
     </g>
     <g id="text_6">
      <!-- 2 -->
      <g style="fill: #52514e" transform="translate(504.394002 289.9925) scale(0.16 -0.16)">
       <use xlink:href="#DejaVuSans-15"/>
      </g>
     </g>
    </g>
    <g id="xtick_7">
     <g id="line2d_13">
      <path d="M 591.712086 270.83625 
L 591.712086 17.28 
" clip-path="url(#p845093e1cc)" style="fill: none; stroke: #e4e3df; stroke-width: 0.8; stroke-linecap: square"/>
     </g>
     <g id="line2d_14">
      <g>
       <use xlink:href="#mf622aa418a" x="591.712086" y="270.83625" style="fill: #52514e; stroke: #52514e; stroke-width: 0.8"/>
      </g>
     </g>
     <g id="text_7">
      <!-- 3 -->
      <g style="fill: #52514e" transform="translate(586.622086 289.9925) scale(0.16 -0.16)">
       <use xlink:href="#DejaVuSans-16"/>
      </g>
     </g>
    </g>
    <g id="xtick_8">
     <g id="line2d_15">
      <path d="M 673.94017 270.83625 
L 673.94017 17.28 
" clip-path="url(#p845093e1cc)" style="fill: none; stroke: #e4e3df; stroke-width: 0.8; stroke-linecap: square"/>
     </g>
     <g id="line2d_16">
      <g>
       <use xlink:href="#mf622aa418a" x="673.94017" y="270.83625" style="fill: #52514e; stroke: #52514e; stroke-width: 0.8"/>
      </g>
     </g>
     <g id="text_8">
      <!-- 4 -->
      <g style="fill: #52514e" transform="translate(668.85017 289.9925) scale(0.16 -0.16)">
       <defs>
        <path id="DejaVuSans-17" d="M 2419 4116 
L 825 1625 
L 2419 1625 
L 2419 4116 
z
M 2253 4666 
L 3047 4666 
L 3047 1625 
L 3713 1625 
L 3713 1100 
L 3047 1100 
L 3047 0 
L 2419 0 
L 2419 1100 
L 313 1100 
L 313 1709 
L 2253 4666 
z
" transform="scale(0.015625)"/>
       </defs>
       <use xlink:href="#DejaVuSans-17"/>
      </g>
     </g>
    </g>
    <g id="text_9">
     <!-- $c$,   $p = (\ln n + c)/n$ -->
     <g style="fill: #0b0b0b" transform="translate(314.781875 309.99625) scale(0.16 -0.16)">
      <defs>
       <path id="DejaVuSans-Oblique-46" d="M 3431 3366 
L 3316 2797 
Q 3109 2947 2876 3022 
Q 2644 3097 2394 3097 
Q 2119 3097 1870 3000 
Q 1622 2903 1453 2725 
Q 1184 2453 1037 2087 
Q 891 1722 891 1331 
Q 891 859 1127 628 
Q 1363 397 1844 397 
Q 2081 397 2348 469 
Q 2616 541 2906 684 
L 2797 116 
Q 2547 13 2283 -39 
Q 2019 -91 1741 -91 
Q 1044 -91 669 257 
Q 294 606 294 1253 
Q 294 1797 489 2255 
Q 684 2713 1069 3078 
Q 1331 3328 1684 3456 
Q 2038 3584 2456 3584 
Q 2700 3584 2940 3529 
Q 3181 3475 3431 3366 
z
" transform="scale(0.015625)"/>
       <path id="DejaVuSans-f" d="M 750 794 
L 1409 794 
L 1409 256 
L 897 -744 
L 494 -744 
L 750 256 
L 750 794 
z
" transform="scale(0.015625)"/>
       <path id="DejaVuSans-3" transform="scale(0.015625)"/>
       <path id="DejaVuSans-Oblique-53" d="M 3175 2156 
Q 3175 2616 2975 2859 
Q 2775 3103 2400 3103 
Q 2144 3103 1911 2972 
Q 1678 2841 1497 2591 
Q 1319 2344 1212 1994 
Q 1106 1644 1106 1300 
Q 1106 863 1306 627 
Q 1506 391 1875 391 
Q 2147 391 2380 519 
Q 2613 647 2778 891 
Q 2956 1147 3065 1494 
Q 3175 1841 3175 2156 
z
M 1394 2969 
Q 1625 3272 1939 3428 
Q 2253 3584 2638 3584 
Q 3175 3584 3472 3232 
Q 3769 2881 3769 2247 
Q 3769 1728 3584 1258 
Q 3400 788 3053 416 
Q 2822 169 2531 39 
Q 2241 -91 1919 -91 
Q 1547 -91 1294 64 
Q 1041 219 916 525 
L 556 -1331 
L -19 -1331 
L 922 3500 
L 1497 3500 
L 1394 2969 
z
" transform="scale(0.015625)"/>
       <path id="DejaVuSans-20" d="M 678 2906 
L 4684 2906 
L 4684 2381 
L 678 2381 
L 678 2906 
z
M 678 1631 
L 4684 1631 
L 4684 1100 
L 678 1100 
L 678 1631 
z
" transform="scale(0.015625)"/>
       <path id="DejaVuSans-b" d="M 1984 4856 
Q 1566 4138 1362 3434 
Q 1159 2731 1159 2009 
Q 1159 1288 1364 580 
Q 1569 -128 1984 -844 
L 1484 -844 
Q 1016 -109 783 600 
Q 550 1309 550 2009 
Q 550 2706 781 3412 
Q 1013 4119 1484 4856 
L 1984 4856 
z
" transform="scale(0.015625)"/>
       <path id="DejaVuSans-4f" d="M 603 4863 
L 1178 4863 
L 1178 0 
L 603 0 
L 603 4863 
z
" transform="scale(0.015625)"/>
       <path id="DejaVuSans-51" d="M 3513 2113 
L 3513 0 
L 2938 0 
L 2938 2094 
Q 2938 2591 2744 2837 
Q 2550 3084 2163 3084 
Q 1697 3084 1428 2787 
Q 1159 2491 1159 1978 
L 1159 0 
L 581 0 
L 581 3500 
L 1159 3500 
L 1159 2956 
Q 1366 3272 1645 3428 
Q 1925 3584 2291 3584 
Q 2894 3584 3203 3211 
Q 3513 2838 3513 2113 
z
" transform="scale(0.015625)"/>
       <path id="DejaVuSans-Oblique-51" d="M 3566 2113 
L 3156 0 
L 2578 0 
L 2988 2091 
Q 3016 2238 3031 2350 
Q 3047 2463 3047 2528 
Q 3047 2791 2881 2937 
Q 2716 3084 2419 3084 
Q 1956 3084 1622 2776 
Q 1288 2469 1184 1941 
L 800 0 
L 225 0 
L 903 3500 
L 1478 3500 
L 1363 2950 
Q 1603 3253 1940 3418 
Q 2278 3584 2650 3584 
Q 3113 3584 3367 3334 
Q 3622 3084 3622 2631 
Q 3622 2519 3608 2391 
Q 3594 2263 3566 2113 
z
" transform="scale(0.015625)"/>
       <path id="DejaVuSans-e" d="M 2944 4013 
L 2944 2272 
L 4684 2272 
L 4684 1741 
L 2944 1741 
L 2944 0 
L 2419 0 
L 2419 1741 
L 678 1741 
L 678 2272 
L 2419 2272 
L 2419 4013 
L 2944 4013 
z
" transform="scale(0.015625)"/>
       <path id="DejaVuSans-c" d="M 513 4856 
L 1013 4856 
Q 1481 4119 1714 3412 
Q 1947 2706 1947 2009 
Q 1947 1309 1714 600 
Q 1481 -109 1013 -844 
L 513 -844 
Q 928 -128 1133 580 
Q 1338 1288 1338 2009 
Q 1338 2731 1133 3434 
Q 928 4138 513 4856 
z
" transform="scale(0.015625)"/>
       <path id="DejaVuSans-12" d="M 1625 4666 
L 2156 4666 
L 531 -594 
L 0 -594 
L 1625 4666 
z
" transform="scale(0.015625)"/>
      </defs>
      <use xlink:href="#DejaVuSans-Oblique-46" transform="translate(0 0.015625)"/>
      <use xlink:href="#DejaVuSans-f" transform="translate(54.980469 0.015625)"/>
      <use xlink:href="#DejaVuSans-3" transform="translate(86.767578 0.015625)"/>
      <use xlink:href="#DejaVuSans-3" transform="translate(118.554688 0.015625)"/>
      <use xlink:href="#DejaVuSans-3" transform="translate(150.341797 0.015625)"/>
      <use xlink:href="#DejaVuSans-Oblique-53" transform="translate(182.128906 0.015625)"/>
      <use xlink:href="#DejaVuSans-20" transform="translate(265.087891 0.015625)"/>
      <use xlink:href="#DejaVuSans-b" transform="translate(368.359375 0.015625)"/>
      <use xlink:href="#DejaVuSans-4f" transform="translate(407.373047 0.015625)"/>
      <use xlink:href="#DejaVuSans-51" transform="translate(435.15625 0.015625)"/>
      <use xlink:href="#DejaVuSans-Oblique-51" transform="translate(514.770833 0.015625)"/>
      <use xlink:href="#DejaVuSans-e" transform="translate(597.632161 0.015625)"/>
      <use xlink:href="#DejaVuSans-Oblique-46" transform="translate(700.903645 0.015625)"/>
      <use xlink:href="#DejaVuSans-c" transform="translate(755.884114 0.015625)"/>
      <use xlink:href="#DejaVuSans-12" transform="translate(794.897786 0.015625)"/>
      <use xlink:href="#DejaVuSans-Oblique-51" transform="translate(828.589192 0.015625)"/>
     </g>
    </g>
   </g>
   <g id="matplotlib.axis_2">
    <g id="ytick_1">
     <g id="line2d_17">
      <path d="M 69.56375 259.310966 
L 702.72 259.310966 
" clip-path="url(#p845093e1cc)" style="fill: none; stroke: #e4e3df; stroke-width: 0.8; stroke-linecap: square"/>
     </g>
     <g id="line2d_18">
      <defs>
       <path id="m2f77e640f6" d="M 0 0 
L -3.5 0 
" style="stroke: #52514e; stroke-width: 0.8"/>
      </defs>
      <g>
       <use xlink:href="#m2f77e640f6" x="69.56375" y="259.310966" style="fill: #52514e; stroke: #52514e; stroke-width: 0.8"/>
      </g>
     </g>
     <g id="text_10">
      <!-- 0.0 -->
      <g style="fill: #52514e" transform="translate(37.11875 265.389091) scale(0.16 -0.16)">
       <defs>
        <path id="DejaVuSans-11" d="M 684 794 
L 1344 794 
L 1344 0 
L 684 0 
L 684 794 
z
" transform="scale(0.015625)"/>
       </defs>
       <use xlink:href="#DejaVuSans-13"/>
       <use xlink:href="#DejaVuSans-11" transform="translate(63.625 0)"/>
       <use xlink:href="#DejaVuSans-13" transform="translate(95.40625 0)"/>
      </g>
     </g>
    </g>
    <g id="ytick_2">
     <g id="line2d_19">
      <path d="M 69.56375 212.428454 
L 702.72 212.428454 
" clip-path="url(#p845093e1cc)" style="fill: none; stroke: #e4e3df; stroke-width: 0.8; stroke-linecap: square"/>
     </g>
     <g id="line2d_20">
      <g>
       <use xlink:href="#m2f77e640f6" x="69.56375" y="212.428454" style="fill: #52514e; stroke: #52514e; stroke-width: 0.8"/>
      </g>
     </g>
     <g id="text_11">
      <!-- 0.2 -->
      <g style="fill: #52514e" transform="translate(37.11875 218.506579) scale(0.16 -0.16)">
       <use xlink:href="#DejaVuSans-13"/>
       <use xlink:href="#DejaVuSans-11" transform="translate(63.625 0)"/>
       <use xlink:href="#DejaVuSans-15" transform="translate(95.40625 0)"/>
      </g>
     </g>
    </g>
    <g id="ytick_3">
     <g id="line2d_21">
      <path d="M 69.56375 165.545943 
L 702.72 165.545943 
" clip-path="url(#p845093e1cc)" style="fill: none; stroke: #e4e3df; stroke-width: 0.8; stroke-linecap: square"/>
     </g>
     <g id="line2d_22">
      <g>
       <use xlink:href="#m2f77e640f6" x="69.56375" y="165.545943" style="fill: #52514e; stroke: #52514e; stroke-width: 0.8"/>
      </g>
     </g>
     <g id="text_12">
      <!-- 0.4 -->
      <g style="fill: #52514e" transform="translate(37.11875 171.624068) scale(0.16 -0.16)">
       <use xlink:href="#DejaVuSans-13"/>
       <use xlink:href="#DejaVuSans-11" transform="translate(63.625 0)"/>
       <use xlink:href="#DejaVuSans-17" transform="translate(95.40625 0)"/>
      </g>
     </g>
    </g>
    <g id="ytick_4">
     <g id="line2d_23">
      <path d="M 69.56375 118.663431 
L 702.72 118.663431 
" clip-path="url(#p845093e1cc)" style="fill: none; stroke: #e4e3df; stroke-width: 0.8; stroke-linecap: square"/>
     </g>
     <g id="line2d_24">
      <g>
       <use xlink:href="#m2f77e640f6" x="69.56375" y="118.663431" style="fill: #52514e; stroke: #52514e; stroke-width: 0.8"/>
      </g>
     </g>
     <g id="text_13">
      <!-- 0.6 -->
      <g style="fill: #52514e" transform="translate(37.11875 124.741556) scale(0.16 -0.16)">
       <defs>
        <path id="DejaVuSans-19" d="M 2113 2584 
Q 1688 2584 1439 2293 
Q 1191 2003 1191 1497 
Q 1191 994 1439 701 
Q 1688 409 2113 409 
Q 2538 409 2786 701 
Q 3034 994 3034 1497 
Q 3034 2003 2786 2293 
Q 2538 2584 2113 2584 
z
M 3366 4563 
L 3366 3988 
Q 3128 4100 2886 4159 
Q 2644 4219 2406 4219 
Q 1781 4219 1451 3797 
Q 1122 3375 1075 2522 
Q 1259 2794 1537 2939 
Q 1816 3084 2150 3084 
Q 2853 3084 3261 2657 
Q 3669 2231 3669 1497 
Q 3669 778 3244 343 
Q 2819 -91 2113 -91 
Q 1303 -91 875 529 
Q 447 1150 447 2328 
Q 447 3434 972 4092 
Q 1497 4750 2381 4750 
Q 2619 4750 2861 4703 
Q 3103 4656 3366 4563 
z
" transform="scale(0.015625)"/>
       </defs>
       <use xlink:href="#DejaVuSans-13"/>
       <use xlink:href="#DejaVuSans-11" transform="translate(63.625 0)"/>
       <use xlink:href="#DejaVuSans-19" transform="translate(95.40625 0)"/>
      </g>
     </g>
    </g>
    <g id="ytick_5">
     <g id="line2d_25">
      <path d="M 69.56375 71.78092 
L 702.72 71.78092 
" clip-path="url(#p845093e1cc)" style="fill: none; stroke: #e4e3df; stroke-width: 0.8; stroke-linecap: square"/>
     </g>
     <g id="line2d_26">
      <g>
       <use xlink:href="#m2f77e640f6" x="69.56375" y="71.78092" style="fill: #52514e; stroke: #52514e; stroke-width: 0.8"/>
      </g>
     </g>
     <g id="text_14">
      <!-- 0.8 -->
      <g style="fill: #52514e" transform="translate(37.11875 77.859045) scale(0.16 -0.16)">
       <defs>
        <path id="DejaVuSans-1b" d="M 2034 2216 
Q 1584 2216 1326 1975 
Q 1069 1734 1069 1313 
Q 1069 891 1326 650 
Q 1584 409 2034 409 
Q 2484 409 2743 651 
Q 3003 894 3003 1313 
Q 3003 1734 2745 1975 
Q 2488 2216 2034 2216 
z
M 1403 2484 
Q 997 2584 770 2862 
Q 544 3141 544 3541 
Q 544 4100 942 4425 
Q 1341 4750 2034 4750 
Q 2731 4750 3128 4425 
Q 3525 4100 3525 3541 
Q 3525 3141 3298 2862 
Q 3072 2584 2669 2484 
Q 3125 2378 3379 2068 
Q 3634 1759 3634 1313 
Q 3634 634 3220 271 
Q 2806 -91 2034 -91 
Q 1263 -91 848 271 
Q 434 634 434 1313 
Q 434 1759 690 2068 
Q 947 2378 1403 2484 
z
M 1172 3481 
Q 1172 3119 1398 2916 
Q 1625 2713 2034 2713 
Q 2441 2713 2670 2916 
Q 2900 3119 2900 3481 
Q 2900 3844 2670 4047 
Q 2441 4250 2034 4250 
Q 1625 4250 1398 4047 
Q 1172 3844 1172 3481 
z
" transform="scale(0.015625)"/>
       </defs>
       <use xlink:href="#DejaVuSans-13"/>
       <use xlink:href="#DejaVuSans-11" transform="translate(63.625 0)"/>
       <use xlink:href="#DejaVuSans-1b" transform="translate(95.40625 0)"/>
      </g>
     </g>
    </g>
    <g id="ytick_6">
     <g id="line2d_27">
      <path d="M 69.56375 24.898408 
L 702.72 24.898408 
" clip-path="url(#p845093e1cc)" style="fill: none; stroke: #e4e3df; stroke-width: 0.8; stroke-linecap: square"/>
     </g>
     <g id="line2d_28">
      <g>
       <use xlink:href="#m2f77e640f6" x="69.56375" y="24.898408" style="fill: #52514e; stroke: #52514e; stroke-width: 0.8"/>
      </g>
     </g>
     <g id="text_15">
      <!-- 1.0 -->
      <g style="fill: #52514e" transform="translate(37.11875 30.976533) scale(0.16 -0.16)">
       <use xlink:href="#DejaVuSans-14"/>
       <use xlink:href="#DejaVuSans-11" transform="translate(63.625 0)"/>
       <use xlink:href="#DejaVuSans-13" transform="translate(95.40625 0)"/>
      </g>
     </g>
    </g>
    <g id="text_16">
     <!-- P(graf povezan) -->
     <g style="fill: #0b0b0b" transform="translate(29.275 207.555625) rotate(-90) scale(0.16 -0.16)">
      <defs>
       <path id="DejaVuSans-33" d="M 1259 4147 
L 1259 2394 
L 2053 2394 
Q 2494 2394 2734 2622 
Q 2975 2850 2975 3272 
Q 2975 3691 2734 3919 
Q 2494 4147 2053 4147 
L 1259 4147 
z
M 628 4666 
L 2053 4666 
Q 2838 4666 3239 4311 
Q 3641 3956 3641 3272 
Q 3641 2581 3239 2228 
Q 2838 1875 2053 1875 
L 1259 1875 
L 1259 0 
L 628 0 
L 628 4666 
z
" transform="scale(0.015625)"/>
       <path id="DejaVuSans-4a" d="M 2906 1791 
Q 2906 2416 2648 2759 
Q 2391 3103 1925 3103 
Q 1463 3103 1205 2759 
Q 947 2416 947 1791 
Q 947 1169 1205 825 
Q 1463 481 1925 481 
Q 2391 481 2648 825 
Q 2906 1169 2906 1791 
z
M 3481 434 
Q 3481 -459 3084 -895 
Q 2688 -1331 1869 -1331 
Q 1566 -1331 1297 -1286 
Q 1028 -1241 775 -1147 
L 775 -588 
Q 1028 -725 1275 -790 
Q 1522 -856 1778 -856 
Q 2344 -856 2625 -561 
Q 2906 -266 2906 331 
L 2906 616 
Q 2728 306 2450 153 
Q 2172 0 1784 0 
Q 1141 0 747 490 
Q 353 981 353 1791 
Q 353 2603 747 3093 
Q 1141 3584 1784 3584 
Q 2172 3584 2450 3431 
Q 2728 3278 2906 2969 
L 2906 3500 
L 3481 3500 
L 3481 434 
z
" transform="scale(0.015625)"/>
       <path id="DejaVuSans-55" d="M 2631 2963 
Q 2534 3019 2420 3045 
Q 2306 3072 2169 3072 
Q 1681 3072 1420 2755 
Q 1159 2438 1159 1844 
L 1159 0 
L 581 0 
L 581 3500 
L 1159 3500 
L 1159 2956 
Q 1341 3275 1631 3429 
Q 1922 3584 2338 3584 
Q 2397 3584 2469 3576 
Q 2541 3569 2628 3553 
L 2631 2963 
z
" transform="scale(0.015625)"/>
       <path id="DejaVuSans-44" d="M 2194 1759 
Q 1497 1759 1228 1600 
Q 959 1441 959 1056 
Q 959 750 1161 570 
Q 1363 391 1709 391 
Q 2188 391 2477 730 
Q 2766 1069 2766 1631 
L 2766 1759 
L 2194 1759 
z
M 3341 1997 
L 3341 0 
L 2766 0 
L 2766 531 
Q 2569 213 2275 61 
Q 1981 -91 1556 -91 
Q 1019 -91 701 211 
Q 384 513 384 1019 
Q 384 1609 779 1909 
Q 1175 2209 1959 2209 
L 2766 2209 
L 2766 2266 
Q 2766 2663 2505 2880 
Q 2244 3097 1772 3097 
Q 1472 3097 1187 3025 
Q 903 2953 641 2809 
L 641 3341 
Q 956 3463 1253 3523 
Q 1550 3584 1831 3584 
Q 2591 3584 2966 3190 
Q 3341 2797 3341 1997 
z
" transform="scale(0.015625)"/>
       <path id="DejaVuSans-49" d="M 2375 4863 
L 2375 4384 
L 1825 4384 
Q 1516 4384 1395 4259 
Q 1275 4134 1275 3809 
L 1275 3500 
L 2222 3500 
L 2222 3053 
L 1275 3053 
L 1275 0 
L 697 0 
L 697 3053 
L 147 3053 
L 147 3500 
L 697 3500 
L 697 3744 
Q 697 4328 969 4595 
Q 1241 4863 1831 4863 
L 2375 4863 
z
" transform="scale(0.015625)"/>
       <path id="DejaVuSans-53" d="M 1159 525 
L 1159 -1331 
L 581 -1331 
L 581 3500 
L 1159 3500 
L 1159 2969 
Q 1341 3281 1617 3432 
Q 1894 3584 2278 3584 
Q 2916 3584 3314 3078 
Q 3713 2572 3713 1747 
Q 3713 922 3314 415 
Q 2916 -91 2278 -91 
Q 1894 -91 1617 61 
Q 1341 213 1159 525 
z
M 3116 1747 
Q 3116 2381 2855 2742 
Q 2594 3103 2138 3103 
Q 1681 3103 1420 2742 
Q 1159 2381 1159 1747 
Q 1159 1113 1420 752 
Q 1681 391 2138 391 
Q 2594 391 2855 752 
Q 3116 1113 3116 1747 
z
" transform="scale(0.015625)"/>
       <path id="DejaVuSans-52" d="M 1959 3097 
Q 1497 3097 1228 2736 
Q 959 2375 959 1747 
Q 959 1119 1226 758 
Q 1494 397 1959 397 
Q 2419 397 2687 759 
Q 2956 1122 2956 1747 
Q 2956 2369 2687 2733 
Q 2419 3097 1959 3097 
z
M 1959 3584 
Q 2709 3584 3137 3096 
Q 3566 2609 3566 1747 
Q 3566 888 3137 398 
Q 2709 -91 1959 -91 
Q 1206 -91 779 398 
Q 353 888 353 1747 
Q 353 2609 779 3096 
Q 1206 3584 1959 3584 
z
" transform="scale(0.015625)"/>
       <path id="DejaVuSans-59" d="M 191 3500 
L 800 3500 
L 1894 563 
L 2988 3500 
L 3597 3500 
L 2284 0 
L 1503 0 
L 191 3500 
z
" transform="scale(0.015625)"/>
       <path id="DejaVuSans-48" d="M 3597 1894 
L 3597 1613 
L 953 1613 
Q 991 1019 1311 708 
Q 1631 397 2203 397 
Q 2534 397 2845 478 
Q 3156 559 3463 722 
L 3463 178 
Q 3153 47 2828 -22 
Q 2503 -91 2169 -91 
Q 1331 -91 842 396 
Q 353 884 353 1716 
Q 353 2575 817 3079 
Q 1281 3584 2069 3584 
Q 2775 3584 3186 3129 
Q 3597 2675 3597 1894 
z
M 3022 2063 
Q 3016 2534 2758 2815 
Q 2500 3097 2075 3097 
Q 1594 3097 1305 2825 
Q 1016 2553 972 2059 
L 3022 2063 
z
" transform="scale(0.015625)"/>
       <path id="DejaVuSans-5d" d="M 353 3500 
L 3084 3500 
L 3084 2975 
L 922 459 
L 3084 459 
L 3084 0 
L 275 0 
L 275 525 
L 2438 3041 
L 353 3041 
L 353 3500 
z
" transform="scale(0.015625)"/>
      </defs>
      <use xlink:href="#DejaVuSans-33"/>
      <use xlink:href="#DejaVuSans-b" transform="translate(60.296875 0)"/>
      <use xlink:href="#DejaVuSans-4a" transform="translate(99.3125 0)"/>
      <use xlink:href="#DejaVuSans-55" transform="translate(162.796875 0)"/>
      <use xlink:href="#DejaVuSans-44" transform="translate(203.90625 0)"/>
      <use xlink:href="#DejaVuSans-49" transform="translate(265.1875 0)"/>
      <use xlink:href="#DejaVuSans-3" transform="translate(300.390625 0)"/>
      <use xlink:href="#DejaVuSans-53" transform="translate(332.171875 0)"/>
      <use xlink:href="#DejaVuSans-52" transform="translate(395.65625 0)"/>
      <use xlink:href="#DejaVuSans-59" transform="translate(456.84375 0)"/>
      <use xlink:href="#DejaVuSans-48" transform="translate(516.03125 0)"/>
      <use xlink:href="#DejaVuSans-5d" transform="translate(577.5625 0)"/>
      <use xlink:href="#DejaVuSans-44" transform="translate(630.046875 0)"/>
      <use xlink:href="#DejaVuSans-51" transform="translate(691.328125 0)"/>
      <use xlink:href="#DejaVuSans-c" transform="translate(754.703125 0)"/>
     </g>
    </g>
   </g>
   <g id="line2d_29">
    <defs>
     <path id="m148a7ecf33" d="M 0 3.5 
C 0.928211 3.5 1.81853 3.131218 2.474874 2.474874 
C 3.131218 1.81853 3.5 0.928211 3.5 0 
C 3.5 -0.928211 3.131218 -1.81853 2.474874 -2.474874 
C 1.81853 -3.131218 0.928211 -3.5 0 -3.5 
C -0.928211 -3.5 -1.81853 -3.131218 -2.474874 -2.474874 
C -3.131218 -1.81853 -3.5 -0.928211 -3.5 0 
C -3.5 0.928211 -3.131218 1.81853 -2.474874 2.474874 
C -1.81853 3.131218 -0.928211 3.5 0 3.5 
z
" style="stroke: #2a78d6"/>
    </defs>
    <g clip-path="url(#p845093e1cc)">
     <use xlink:href="#m148a7ecf33" x="98.34358" y="259.310966" style="fill: #2a78d6; stroke: #2a78d6"/>
     <use xlink:href="#m148a7ecf33" x="125.752941" y="259.310966" style="fill: #2a78d6; stroke: #2a78d6"/>
     <use xlink:href="#m148a7ecf33" x="153.162302" y="259.310966" style="fill: #2a78d6; stroke: #2a78d6"/>
     <use xlink:href="#m148a7ecf33" x="180.571664" y="259.310966" style="fill: #2a78d6; stroke: #2a78d6"/>
     <use xlink:href="#m148a7ecf33" x="207.981025" y="255.40409" style="fill: #2a78d6; stroke: #2a78d6"/>
     <use xlink:href="#m148a7ecf33" x="235.390387" y="255.40409" style="fill: #2a78d6; stroke: #2a78d6"/>
     <use xlink:href="#m148a7ecf33" x="262.799748" y="243.683462" style="fill: #2a78d6; stroke: #2a78d6"/>
     <use xlink:href="#m148a7ecf33" x="290.20911" y="239.776586" style="fill: #2a78d6; stroke: #2a78d6"/>
     <use xlink:href="#m148a7ecf33" x="317.618471" y="196.800951" style="fill: #2a78d6; stroke: #2a78d6"/>
     <use xlink:href="#m148a7ecf33" x="345.027833" y="149.918439" style="fill: #2a78d6; stroke: #2a78d6"/>
     <use xlink:href="#m148a7ecf33" x="372.437194" y="118.663431" style="fill: #2a78d6; stroke: #2a78d6"/>
     <use xlink:href="#m148a7ecf33" x="399.846556" y="122.570307" style="fill: #2a78d6; stroke: #2a78d6"/>
     <use xlink:href="#m148a7ecf33" x="427.255917" y="75.687796" style="fill: #2a78d6; stroke: #2a78d6"/>
     <use xlink:href="#m148a7ecf33" x="454.665279" y="75.687796" style="fill: #2a78d6; stroke: #2a78d6"/>
     <use xlink:href="#m148a7ecf33" x="482.07464" y="52.24654" style="fill: #2a78d6; stroke: #2a78d6"/>
     <use xlink:href="#m148a7ecf33" x="509.484002" y="44.432788" style="fill: #2a78d6; stroke: #2a78d6"/>
     <use xlink:href="#m148a7ecf33" x="536.893363" y="48.339664" style="fill: #2a78d6; stroke: #2a78d6"/>
     <use xlink:href="#m148a7ecf33" x="564.302725" y="40.525912" style="fill: #2a78d6; stroke: #2a78d6"/>
     <use xlink:href="#m148a7ecf33" x="591.712086" y="36.619036" style="fill: #2a78d6; stroke: #2a78d6"/>
     <use xlink:href="#m148a7ecf33" x="619.121448" y="28.805284" style="fill: #2a78d6; stroke: #2a78d6"/>
     <use xlink:href="#m148a7ecf33" x="646.530809" y="36.619036" style="fill: #2a78d6; stroke: #2a78d6"/>
     <use xlink:href="#m148a7ecf33" x="673.94017" y="28.805284" style="fill: #2a78d6; stroke: #2a78d6"/>
    </g>
   </g>
   <g id="line2d_30">
    <defs>
     <path id="m7551f3f915" d="M 0 3.5 
C 0.928211 3.5 1.81853 3.131218 2.474874 2.474874 
C 3.131218 1.81853 3.5 0.928211 3.5 0 
C 3.5 -0.928211 3.131218 -1.81853 2.474874 -2.474874 
C 1.81853 -3.131218 0.928211 -3.5 0 -3.5 
C -0.928211 -3.5 -1.81853 -3.131218 -2.474874 -2.474874 
C -3.131218 -1.81853 -3.5 -0.928211 -3.5 0 
C -3.5 0.928211 -3.131218 1.81853 -2.474874 2.474874 
C -1.81853 3.131218 -0.928211 3.5 0 3.5 
z
" style="stroke: #eb6834"/>
    </defs>
    <g clip-path="url(#p845093e1cc)">
     <use xlink:href="#m7551f3f915" x="98.34358" y="259.310966" style="fill: #eb6834; stroke: #eb6834"/>
     <use xlink:href="#m7551f3f915" x="125.752941" y="259.310966" style="fill: #eb6834; stroke: #eb6834"/>
     <use xlink:href="#m7551f3f915" x="153.162302" y="259.310966" style="fill: #eb6834; stroke: #eb6834"/>
     <use xlink:href="#m7551f3f915" x="180.571664" y="259.310966" style="fill: #eb6834; stroke: #eb6834"/>
     <use xlink:href="#m7551f3f915" x="207.981025" y="251.497214" style="fill: #eb6834; stroke: #eb6834"/>
     <use xlink:href="#m7551f3f915" x="235.390387" y="247.590338" style="fill: #eb6834; stroke: #eb6834"/>
     <use xlink:href="#m7551f3f915" x="262.799748" y="235.86971" style="fill: #eb6834; stroke: #eb6834"/>
     <use xlink:href="#m7551f3f915" x="290.20911" y="235.86971" style="fill: #eb6834; stroke: #eb6834"/>
     <use xlink:href="#m7551f3f915" x="317.618471" y="196.800951" style="fill: #eb6834; stroke: #eb6834"/>
     <use xlink:href="#m7551f3f915" x="345.027833" y="173.359695" style="fill: #eb6834; stroke: #eb6834"/>
     <use xlink:href="#m7551f3f915" x="372.437194" y="149.918439" style="fill: #eb6834; stroke: #eb6834"/>
     <use xlink:href="#m7551f3f915" x="399.846556" y="130.384059" style="fill: #eb6834; stroke: #eb6834"/>
     <use xlink:href="#m7551f3f915" x="427.255917" y="95.222175" style="fill: #eb6834; stroke: #eb6834"/>
     <use xlink:href="#m7551f3f915" x="454.665279" y="95.222175" style="fill: #eb6834; stroke: #eb6834"/>
     <use xlink:href="#m7551f3f915" x="482.07464" y="75.687796" style="fill: #eb6834; stroke: #eb6834"/>
     <use xlink:href="#m7551f3f915" x="509.484002" y="44.432788" style="fill: #eb6834; stroke: #eb6834"/>
     <use xlink:href="#m7551f3f915" x="536.893363" y="32.71216" style="fill: #eb6834; stroke: #eb6834"/>
     <use xlink:href="#m7551f3f915" x="564.302725" y="40.525912" style="fill: #eb6834; stroke: #eb6834"/>
     <use xlink:href="#m7551f3f915" x="591.712086" y="36.619036" style="fill: #eb6834; stroke: #eb6834"/>
     <use xlink:href="#m7551f3f915" x="619.121448" y="28.805284" style="fill: #eb6834; stroke: #eb6834"/>
     <use xlink:href="#m7551f3f915" x="646.530809" y="28.805284" style="fill: #eb6834; stroke: #eb6834"/>
     <use xlink:href="#m7551f3f915" x="673.94017" y="32.71216" style="fill: #eb6834; stroke: #eb6834"/>
    </g>
   </g>
   <g id="line2d_31">
    <path d="M 98.34358 259.310965 
L 177.27154 259.203926 
L 190.747046 258.968615 
L 200.372407 258.606765 
L 208.072696 258.127447 
L 215.772984 257.412089 
L 221.548201 256.678574 
L 227.323418 255.741665 
L 233.098634 254.570216 
L 238.873851 253.134348 
L 244.649068 251.406707 
L 250.424284 249.363628 
L 256.199501 246.986146 
L 261.974717 244.260788 
L 267.749934 241.180117 
L 273.525151 237.742996 
L 279.300367 233.954599 
L 285.075584 229.826162 
L 290.850801 225.374533 
L 296.626017 220.621544 
L 302.401234 215.593266 
L 308.17645 210.31918 
L 315.876739 202.960335 
L 323.577028 195.301928 
L 333.202389 185.432987 
L 371.703833 145.546267 
L 381.329194 136.088269 
L 389.029483 128.796784 
L 396.729772 121.782439 
L 404.430061 115.067721 
L 412.13035 108.66848 
L 419.830639 102.594656 
L 427.530928 96.851017 
L 435.231216 91.437908 
L 442.931505 86.351957 
L 450.631794 81.586742 
L 458.332083 77.133396 
L 466.032372 72.981155 
L 473.732661 69.117829 
L 481.432949 65.530226 
L 489.133238 62.204498 
L 496.833527 59.126446 
L 504.533816 56.28176 
L 512.234105 53.656223 
L 519.934394 51.23587 
L 529.559755 48.478311 
L 539.185116 45.99467 
L 548.810477 43.760807 
L 558.435838 41.754057 
L 568.061199 39.953287 
L 579.611632 38.036797 
L 591.162065 36.357869 
L 602.712499 34.888622 
L 616.188004 33.406315 
L 629.66351 32.140387 
L 645.064087 30.919512 
L 662.389737 29.787617 
L 673.94017 29.152745 
L 673.94017 29.152745 
" clip-path="url(#p845093e1cc)" style="fill: none; stroke: #0b0b0b; stroke-width: 2.2; stroke-linecap: square"/>
   </g>
   <g id="patch_3">
    <path d="M 69.56375 270.83625 
L 69.56375 17.28 
" style="fill: none; stroke: #52514e; stroke-width: 0.8; stroke-linejoin: miter; stroke-linecap: square"/>
   </g>
   <g id="patch_4">
    <path d="M 69.56375 270.83625 
L 702.72 270.83625 
" style="fill: none; stroke: #52514e; stroke-width: 0.8; stroke-linejoin: miter; stroke-linecap: square"/>
   </g>
   <g id="legend_1">
    <g id="line2d_32">
     <g>
      <use xlink:href="#m148a7ecf33" x="98.06375" y="36.927656" style="fill: #2a78d6; stroke: #2a78d6"/>
     </g>
    </g>
    <g id="text_17">
     <!-- $n = 200$ -->
     <g style="fill: #0b0b0b" transform="translate(125.06375 42.177656) scale(0.15 -0.15)">
      <use xlink:href="#DejaVuSans-Oblique-51" transform="translate(0 0.78125)"/>
      <use xlink:href="#DejaVuSans-20" transform="translate(82.861328 0.78125)"/>
      <use xlink:href="#DejaVuSans-15" transform="translate(186.132812 0.78125)"/>
      <use xlink:href="#DejaVuSans-13" transform="translate(249.755859 0.78125)"/>
      <use xlink:href="#DejaVuSans-13" transform="translate(313.378906 0.78125)"/>
     </g>
    </g>
    <g id="line2d_33">
     <g>
      <use xlink:href="#m7551f3f915" x="98.06375" y="59.428828" style="fill: #eb6834; stroke: #eb6834"/>
     </g>
    </g>
    <g id="text_18">
     <!-- $n = 2000$ -->
     <g style="fill: #0b0b0b" transform="translate(125.06375 64.678828) scale(0.15 -0.15)">
      <use xlink:href="#DejaVuSans-Oblique-51" transform="translate(0 0.78125)"/>
      <use xlink:href="#DejaVuSans-20" transform="translate(82.861328 0.78125)"/>
      <use xlink:href="#DejaVuSans-15" transform="translate(186.132812 0.78125)"/>
      <use xlink:href="#DejaVuSans-13" transform="translate(249.755859 0.78125)"/>
      <use xlink:href="#DejaVuSans-13" transform="translate(313.378906 0.78125)"/>
      <use xlink:href="#DejaVuSans-13" transform="translate(377.001953 0.78125)"/>
     </g>
    </g>
    <g id="line2d_34">
     <path d="M 83.06375 85.232344 
L 98.06375 85.232344 
L 113.06375 85.232344 
" style="fill: none; stroke: #0b0b0b; stroke-width: 2.2; stroke-linecap: square"/>
    </g>
    <g id="text_19">
     <!-- $e^{-e^{-c}}$ -->
     <g style="fill: #0b0b0b" transform="translate(125.06375 90.482344) scale(0.15 -0.15)">
      <defs>
       <path id="DejaVuSans-Oblique-48" d="M 3078 2063 
Q 3088 2113 3092 2166 
Q 3097 2219 3097 2272 
Q 3097 2653 2873 2875 
Q 2650 3097 2266 3097 
Q 1838 3097 1509 2826 
Q 1181 2556 1013 2059 
L 3078 2063 
z
M 3578 1613 
L 903 1613 
Q 884 1494 878 1425 
Q 872 1356 872 1306 
Q 872 872 1139 634 
Q 1406 397 1894 397 
Q 2269 397 2603 481 
Q 2938 566 3225 728 
L 3116 159 
Q 2806 34 2476 -28 
Q 2147 -91 1806 -91 
Q 1078 -91 686 257 
Q 294 606 294 1247 
Q 294 1794 489 2264 
Q 684 2734 1063 3103 
Q 1306 3334 1642 3459 
Q 1978 3584 2356 3584 
Q 2950 3584 3301 3228 
Q 3653 2872 3653 2272 
Q 3653 2128 3634 1964 
Q 3616 1800 3578 1613 
z
" transform="scale(0.015625)"/>
      </defs>
      <use xlink:href="#DejaVuSans-Oblique-48" transform="translate(0 0.35)"/>
      <use xlink:href="#DejaVuSans-c9c" transform="translate(66.173333 41.65) scale(0.7)"/>
      <use xlink:href="#DejaVuSans-Oblique-48" transform="translate(124.825677 41.65) scale(0.7)"/>
      <use xlink:href="#DejaVuSans-c9c" transform="translate(171.14701 70.56) scale(0.49)"/>
      <use xlink:href="#DejaVuSans-Oblique-46" transform="translate(212.203651 70.56) scale(0.49)"/>
     </g>
    </g>
   </g>
  </g>
 </g>
 <defs>
  <clipPath id="p845093e1cc">
   <rect x="69.56375" y="17.28" width="633.15625" height="253.55625"/>
  </clipPath>
 </defs>
</svg>
