<?xml version="1.0" encoding="utf-8" standalone="no"?>
<!DOCTYPE svg PUBLIC "-//W3C//DTD SVG 1.1//EN"
  "http://www.w3.org/Graphics/SVG/1.1/DTD/svg11.dtd">
<svg xmlns:xlink="http://www.w3.org/1999/xlink" width="720pt" height="331.2pt" viewBox="0 0 720 331.2" xmlns="http://www.w3.org/2000/svg" version="1.1">
 <metadata>
  <rdf:RDF xmlns:dc="http://purl.org/dc/elements/1.1/" xmlns:cc="http://creativecommons.org/ns#" xmlns:rdf="http://www.w3.org/1999/02/22-rdf-syntax-ns#">
   <cc:Work>
    <dc:type rdf:resource="http://purl.org/dc/dcmitype/StillImage"/>
    <dc:date>2026-09-17T14:46:45.744217</dc:date>
    <dc:format>image/svg+xml</dc:format>
    <dc:creator>
     <cc:Agent>
      <dc:title>Matplotlib v3.9.4, https://matplotlib.org/</dc:title>
     </cc:Agent>
    </dc:creator>
   </cc:Work>
  </rdf:RDF>
 </metadata>
 <defs>
  <style type="text/css">*{stroke-linejoin: round; stroke-linecap: butt}</style>
 </defs>
 <g id="figure_1">
  <g id="patch_1">
   <path d="M 0 331.2 
L 720 331.2 
L 720 0 
L 0 0 
z
" style="fill: #fcfcfb"/>
  </g>
  <g id="axes_1">
   <g id="patch_2">
    <path d="M 17.28 292.52 
L 702.72 292.52 
L 702.72 28.005414 
L 17.28 28.005414 
z
" style="fill: #fcfcfb"/>
   </g>
   <g id="PolyCollection_1">
    <defs>
     <path id="m3bdbf5acb5" d="M 368.575146 -50.70339 
L 368.575146 -112.205079 
L 369.094852 -111.277787 
L 369.614558 -110.359455 
L 370.134263 -109.4501 
L 370.653969 -108.549738 
L 371.173675 -107.658382 
L 371.693381 -106.77604 
L 372.213087 -105.902721 
L 372.732792 -105.038431 
L 373.252498 -104.183172 
L 373.772204 -103.336944 
L 374.29191 -102.499748 
L 374.811616 -101.671577 
L 375.331322 -100.852427 
L 375.851027 -100.04229 
L 376.370733 -99.241154 
L 376.890439 -98.449008 
L 377.410145 -97.665837 
L 377.929851 -96.891624 
L 378.449556 -96.126352 
L 378.969262 -95.37 
L 379.488968 -94.622545 
L 380.008674 -93.883963 
L 380.52838 -93.154229 
L 381.048086 -92.433315 
L 381.567791 -91.721191 
L 382.087497 -91.017826 
L 382.607203 -90.323187 
L 383.126909 -89.63724 
L 383.646615 -88.959949 
L 384.16632 -88.291277 
L 384.686026 -87.631183 
L 385.205732 -86.979629 
L 385.725438 -86.336571 
L 386.245144 -85.701966 
L 386.764849 -85.07577 
L 387.284555 -84.457937 
L 387.804261 -83.848419 
L 388.323967 -83.247169 
L 388.843673 -82.654136 
L 389.363379 -82.069269 
L 389.883084 -81.492517 
L 390.40279 -80.923826 
L 390.922496 -80.363143 
L 391.442202 -79.810412 
L 391.961908 -79.265578 
L 392.481613 -78.728583 
L 393.001319 -78.19937 
L 393.521025 -77.67788 
L 394.040731 -77.164053 
L 394.560437 -76.657829 
L 395.080143 -76.159147 
L 395.599848 -75.667945 
L 396.119554 -75.184161 
L 396.63926 -74.707732 
L 397.158966 -74.238594 
L 397.678672 -73.776683 
L 398.198377 -73.321933 
L 398.718083 -72.87428 
L 399.237789 -72.433657 
L 399.757495 -71.999999 
L 400.277201 -71.573238 
L 400.796907 -71.153308 
L 401.316612 -70.740141 
L 401.836318 -70.333669 
L 402.356024 -69.933824 
L 402.87573 -69.540539 
L 403.395436 -69.153743 
L 403.915141 -68.773369 
L 404.434847 -68.399347 
L 404.954553 -68.031608 
L 405.474259 -67.670083 
L 405.993965 -67.314702 
L 406.51367 -66.965397 
L 407.033376 -66.622096 
L 407.553082 -66.284732 
L 408.072788 -65.953233 
L 408.592494 -65.627532 
L 409.1122 -65.307557 
L 409.631905 -64.993239 
L 410.151611 -64.68451 
L 410.671317 -64.3813 
L 411.191023 -64.083539 
L 411.710729 -63.791158 
L 412.230434 -63.504089 
L 412.75014 -63.222263 
L 413.269846 -62.945612 
L 413.789552 -62.674066 
L 414.309258 -62.407558 
L 414.828964 -62.146021 
L 415.348669 -61.889386 
L 415.868375 -61.637587 
L 416.388081 -61.390556 
L 416.907787 -61.148227 
L 417.427493 -60.910534 
L 417.947198 -60.677411 
L 418.466904 -60.448791 
L 418.98661 -60.22461 
L 419.506316 -60.004804 
L 420.026022 -59.789307 
L 420.545728 -59.578056 
L 421.065433 -59.370987 
L 421.585139 -59.168037 
L 422.104845 -58.969143 
L 422.624551 -58.774243 
L 423.144257 -58.583276 
L 423.663962 -58.396179 
L 424.183668 -58.212893 
L 424.703374 -58.033357 
L 425.22308 -57.857511 
L 425.742786 -57.685296 
L 426.262491 -57.516653 
L 426.782197 -57.351523 
L 427.301903 -57.18985 
L 427.821609 -57.031576 
L 428.341315 -56.876645 
L 428.861021 -56.724999 
L 429.380726 -56.576585 
L 429.900432 -56.431346 
L 430.420138 -56.289229 
L 430.939844 -56.150179 
L 431.45955 -56.014144 
L 431.979255 -55.88107 
L 432.498961 -55.750907 
L 433.018667 -55.623601 
L 433.538373 -55.499102 
L 434.058079 -55.37736 
L 434.577785 -55.258326 
L 435.09749 -55.141949 
L 435.617196 -55.028181 
L 436.136902 -54.916975 
L 436.656608 -54.808283 
L 437.176314 -54.702058 
L 437.696019 -54.598255 
L 438.215725 -54.496826 
L 438.735431 -54.397728 
L 439.255137 -54.300916 
L 439.774843 -54.206346 
L 440.294548 -54.113975 
L 440.814254 -54.023761 
L 441.33396 -53.93566 
L 441.853666 -53.849633 
L 442.373372 -53.765637 
L 442.893078 -53.683633 
L 443.412783 -53.60358 
L 443.932489 -53.525441 
L 444.452195 -53.449175 
L 444.971901 -53.374746 
L 445.491607 -53.302116 
L 446.011312 -53.231248 
L 446.531018 -53.162105 
L 447.050724 -53.094652 
L 447.57043 -53.028854 
L 448.090136 -52.964676 
L 448.609842 -52.902084 
L 449.129547 -52.841045 
L 449.649253 -52.781526 
L 450.168959 -52.723493 
L 450.688665 -52.666916 
L 451.208371 -52.611763 
L 451.728076 -52.558003 
L 452.247782 -52.505606 
L 452.767488 -52.454541 
L 453.287194 -52.404781 
L 453.8069 -52.356295 
L 454.326606 -52.309056 
L 454.846311 -52.263035 
L 455.366017 -52.218206 
L 455.885723 -52.174542 
L 456.405429 -52.132016 
L 456.925135 -52.090603 
L 457.44484 -52.050276 
L 457.964546 -52.011012 
L 458.484252 -51.972786 
L 459.003958 -51.935574 
L 459.523664 -51.899351 
L 460.043369 -51.864096 
L 460.563075 -51.829786 
L 461.082781 -51.796397 
L 461.602487 -51.763909 
L 462.122193 -51.7323 
L 462.641899 -51.701549 
L 463.161604 -51.671636 
L 463.68131 -51.64254 
L 464.201016 -51.614242 
L 464.720722 -51.586722 
L 465.240428 -51.559961 
L 465.760133 -51.533942 
L 466.279839 -51.508644 
L 466.799545 -51.484052 
L 467.319251 -51.460147 
L 467.838957 -51.436912 
L 468.358663 -51.414331 
L 468.878368 -51.392387 
L 469.398074 -51.371064 
L 469.91778 -51.350347 
L 470.437486 -51.330219 
L 470.957192 -51.310667 
L 471.476897 -51.291675 
L 471.996603 -51.273229 
L 472.516309 -51.255315 
L 473.036015 -51.237919 
L 473.555721 -51.221028 
L 474.075426 -51.204629 
L 474.595132 -51.188708 
L 475.114838 -51.173253 
L 475.634544 -51.158252 
L 476.15425 -51.143693 
L 476.673956 -51.129564 
L 477.193661 -51.115854 
L 477.713367 -51.102551 
L 478.233073 -51.089645 
L 478.752779 -51.077125 
L 479.272485 -51.06498 
L 479.79219 -51.0532 
L 480.311896 -51.041776 
L 480.831602 -51.030697 
L 481.351308 -51.019954 
L 481.871014 -51.009538 
L 482.39072 -50.99944 
L 482.910425 -50.989651 
L 483.430131 -50.980162 
L 483.949837 -50.970965 
L 484.469543 -50.962052 
L 484.989249 -50.953415 
L 485.508954 -50.945046 
L 486.02866 -50.936937 
L 486.548366 -50.929082 
L 487.068072 -50.921472 
L 487.587778 -50.914101 
L 488.107484 -50.906963 
L 488.627189 -50.900049 
L 489.146895 -50.893354 
L 489.666601 -50.886872 
L 490.186307 -50.880596 
L 490.706013 -50.87452 
L 491.225718 -50.868639 
L 491.745424 -50.862947 
L 492.26513 -50.857437 
L 492.784836 -50.852105 
L 493.304542 -50.846946 
L 493.824247 -50.841954 
L 494.343953 -50.837125 
L 494.863659 -50.832452 
L 495.383365 -50.827933 
L 495.903071 -50.823562 
L 496.422777 -50.819334 
L 496.942482 -50.815246 
L 497.462188 -50.811293 
L 497.981894 -50.80747 
L 498.5016 -50.803775 
L 499.021306 -50.800203 
L 499.541011 -50.79675 
L 500.060717 -50.793412 
L 500.580423 -50.790187 
L 501.100129 -50.78707 
L 501.619835 -50.784058 
L 502.139541 -50.781148 
L 502.659246 -50.778337 
L 503.178952 -50.775621 
L 503.698658 -50.772998 
L 504.218364 -50.770465 
L 504.73807 -50.768018 
L 505.257775 -50.765655 
L 505.777481 -50.763374 
L 506.297187 -50.761171 
L 506.816893 -50.759045 
L 507.336599 -50.756992 
L 507.856304 -50.755011 
L 508.37601 -50.753098 
L 508.895716 -50.751253 
L 509.415422 -50.749472 
L 509.935128 -50.747754 
L 510.454834 -50.746096 
L 510.974539 -50.744496 
L 511.494245 -50.742954 
L 512.013951 -50.741465 
L 512.533657 -50.74003 
L 513.053363 -50.738646 
L 513.573068 -50.737312 
L 514.092774 -50.736025 
L 514.61248 -50.734784 
L 515.132186 -50.733588 
L 515.651892 -50.732435 
L 516.171598 -50.731324 
L 516.691303 -50.730253 
L 517.211009 -50.729221 
L 517.730715 -50.728226 
L 518.250421 -50.727268 
L 518.770127 -50.726345 
L 519.289832 -50.725455 
L 519.809538 -50.724598 
L 520.329244 -50.723773 
L 520.84895 -50.722979 
L 521.368656 -50.722213 
L 521.888362 -50.721476 
L 522.408067 -50.720767 
L 522.927773 -50.720084 
L 523.447479 -50.719426 
L 523.967185 -50.718793 
L 524.486891 -50.718184 
L 525.006596 -50.717597 
L 525.526302 -50.717033 
L 526.046008 -50.71649 
L 526.565714 -50.715968 
L 527.08542 -50.715465 
L 527.605125 -50.714982 
L 528.124831 -50.714517 
L 528.644537 -50.714069 
L 529.164243 -50.713639 
L 529.683949 -50.713226 
L 530.203655 -50.712828 
L 530.72336 -50.712445 
L 531.243066 -50.712078 
L 531.762772 -50.711724 
L 532.282478 -50.711384 
L 532.802184 -50.711058 
L 533.321889 -50.710744 
L 533.841595 -50.710442 
L 534.361301 -50.710153 
L 534.881007 -50.709874 
L 535.400713 -50.709607 
L 535.920419 -50.70935 
L 536.440124 -50.709103 
L 536.95983 -50.708866 
L 537.479536 -50.708638 
L 537.999242 -50.70842 
L 538.518948 -50.70821 
L 539.038653 -50.708008 
L 539.558359 -50.707815 
L 540.078065 -50.707629 
L 540.597771 -50.707451 
L 541.117477 -50.70728 
L 541.637183 -50.707116 
L 542.156888 -50.706958 
L 542.676594 -50.706807 
L 543.1963 -50.706662 
L 543.716006 -50.706523 
L 544.235712 -50.706389 
L 544.755417 -50.706261 
L 545.275123 -50.706138 
L 545.794829 -50.70602 
L 546.314535 -50.705907 
L 546.834241 -50.705799 
L 547.353946 -50.705695 
L 547.873652 -50.705596 
L 548.393358 -50.7055 
L 548.913064 -50.705409 
L 549.43277 -50.705321 
L 549.952476 -50.705237 
L 550.472181 -50.705157 
L 550.991887 -50.70508 
L 551.511593 -50.705006 
L 552.031299 -50.704935 
L 552.551005 -50.704867 
L 553.07071 -50.704802 
L 553.590416 -50.70474 
L 554.110122 -50.70468 
L 554.629828 -50.704623 
L 555.149534 -50.704569 
L 555.66924 -50.704516 
L 556.188945 -50.704466 
L 556.708651 -50.704418 
L 557.228357 -50.704372 
L 557.748063 -50.704328 
L 558.267769 -50.704286 
L 558.787474 -50.704246 
L 559.30718 -50.704208 
L 559.826886 -50.704171 
L 560.346592 -50.704136 
L 560.866298 -50.704102 
L 561.386003 -50.70407 
L 561.905709 -50.704039 
L 562.425415 -50.704009 
L 562.945121 -50.703981 
L 563.464827 -50.703954 
L 563.984533 -50.703929 
L 564.504238 -50.703904 
L 565.023944 -50.70388 
L 565.54365 -50.703858 
L 566.063356 -50.703836 
L 566.583062 -50.703816 
L 567.102767 -50.703796 
L 567.622473 -50.703777 
L 568.142179 -50.703759 
L 568.661885 -50.703742 
L 569.181591 -50.703726 
L 569.701297 -50.70371 
L 570.221002 -50.703695 
L 570.740708 -50.703681 
L 571.260414 -50.703668 
L 571.78012 -50.703655 
L 572.299826 -50.703642 
L 572.819531 -50.70363 
L 573.339237 -50.703619 
L 573.858943 -50.703608 
L 574.378649 -50.703598 
L 574.898355 -50.703588 
L 575.418061 -50.703579 
L 575.937766 -50.70357 
L 576.457472 -50.703561 
L 576.977178 -50.703553 
L 577.496884 -50.703545 
L 578.01659 -50.703538 
L 578.536295 -50.703531 
L 579.056001 -50.703524 
L 579.575707 -50.703518 
L 580.095413 -50.703511 
L 580.615119 -50.703506 
L 581.134824 -50.7035 
L 581.65453 -50.703495 
L 582.174236 -50.70349 
L 582.693942 -50.703485 
L 583.213648 -50.70348 
L 583.733354 -50.703476 
L 584.253059 -50.703472 
L 584.772765 -50.703468 
L 585.292471 -50.703464 
L 585.812177 -50.70346 
L 586.331883 -50.703457 
L 586.851588 -50.703454 
L 587.371294 -50.70345 
L 587.891 -50.703447 
L 588.410706 -50.703445 
L 588.930412 -50.703442 
L 589.450118 -50.703439 
L 589.969823 -50.703437 
L 590.489529 -50.703435 
L 591.009235 -50.703432 
L 591.528941 -50.70343 
L 592.048647 -50.703428 
L 592.568352 -50.703426 
L 593.088058 -50.703425 
L 593.607764 -50.703423 
L 594.12747 -50.703421 
L 594.647176 -50.70342 
L 595.166881 -50.703418 
L 595.686587 -50.703417 
L 596.206293 -50.703415 
L 596.725999 -50.703414 
L 597.245705 -50.703413 
L 597.765411 -50.703412 
L 598.285116 -50.703411 
L 598.804822 -50.70341 
L 599.324528 -50.703409 
L 599.844234 -50.703408 
L 600.36394 -50.703407 
L 600.883645 -50.703406 
L 601.403351 -50.703405 
L 601.923057 -50.703404 
L 602.442763 -50.703404 
L 602.962469 -50.703403 
L 603.482175 -50.703402 
L 604.00188 -50.703402 
L 604.521586 -50.703401 
L 605.041292 -50.703401 
L 605.560998 -50.7034 
L 606.080704 -50.7034 
L 606.600409 -50.703399 
L 607.120115 -50.703399 
L 607.639821 -50.703398 
L 608.159527 -50.703398 
L 608.679233 -50.703397 
L 609.198939 -50.703397 
L 609.718644 -50.703397 
L 610.23835 -50.703396 
L 610.758056 -50.703396 
L 611.277762 -50.703396 
L 611.797468 -50.703395 
L 612.317173 -50.703395 
L 612.836879 -50.703395 
L 613.356585 -50.703395 
L 613.876291 -50.703394 
L 614.395997 -50.703394 
L 614.915702 -50.703394 
L 615.435408 -50.703394 
L 615.955114 -50.703394 
L 616.47482 -50.703393 
L 616.994526 -50.703393 
L 617.514232 -50.703393 
L 618.033937 -50.703393 
L 618.553643 -50.703393 
L 619.073349 -50.703393 
L 619.593055 -50.703393 
L 620.112761 -50.703392 
L 620.632466 -50.703392 
L 621.152172 -50.703392 
L 621.671878 -50.703392 
L 622.191584 -50.703392 
L 622.71129 -50.703392 
L 623.230996 -50.703392 
L 623.750701 -50.703392 
L 624.270407 -50.703392 
L 624.790113 -50.703392 
L 625.309819 -50.703391 
L 625.829525 -50.703391 
L 626.34923 -50.703391 
L 626.868936 -50.703391 
L 627.388642 -50.703391 
L 627.908348 -50.703391 
L 628.428054 -50.703391 
L 628.947759 -50.703391 
L 629.467465 -50.703391 
L 629.987171 -50.703391 
L 630.506877 -50.703391 
L 631.026583 -50.703391 
L 631.546289 -50.703391 
L 632.065994 -50.703391 
L 632.5857 -50.703391 
L 633.105406 -50.703391 
L 633.625112 -50.703391 
L 634.144818 -50.703391 
L 634.664523 -50.703391 
L 635.184229 -50.703391 
L 635.703935 -50.703391 
L 636.223641 -50.703391 
L 636.743347 -50.703391 
L 637.263053 -50.703391 
L 637.782758 -50.703391 
L 638.302464 -50.703391 
L 638.82217 -50.703391 
L 639.341876 -50.703391 
L 639.861582 -50.703391 
L 640.381287 -50.703391 
L 640.900993 -50.70339 
L 641.420699 -50.70339 
L 641.940405 -50.70339 
L 642.460111 -50.70339 
L 642.979817 -50.70339 
L 643.499522 -50.70339 
L 644.019228 -50.70339 
L 644.538934 -50.70339 
L 645.05864 -50.70339 
L 645.578346 -50.70339 
L 646.098051 -50.70339 
L 646.617757 -50.70339 
L 647.137463 -50.70339 
L 647.657169 -50.70339 
L 648.176875 -50.70339 
L 648.69658 -50.70339 
L 649.216286 -50.70339 
L 649.735992 -50.70339 
L 650.255698 -50.70339 
L 650.775404 -50.70339 
L 651.29511 -50.70339 
L 651.814815 -50.70339 
L 652.334521 -50.70339 
L 652.854227 -50.70339 
L 653.373933 -50.70339 
L 653.893639 -50.70339 
L 654.413344 -50.70339 
L 654.93305 -50.70339 
L 655.452756 -50.70339 
L 655.972462 -50.70339 
L 656.492168 -50.70339 
L 657.011874 -50.70339 
L 657.531579 -50.70339 
L 658.051285 -50.70339 
L 658.570991 -50.70339 
L 659.090697 -50.70339 
L 659.610403 -50.70339 
L 660.130108 -50.70339 
L 660.649814 -50.70339 
L 661.16952 -50.70339 
L 661.689226 -50.70339 
L 662.208932 -50.70339 
L 662.728638 -50.70339 
L 663.248343 -50.70339 
L 663.768049 -50.70339 
L 664.287755 -50.70339 
L 664.807461 -50.70339 
L 665.327167 -50.70339 
L 665.846872 -50.70339 
L 666.366578 -50.70339 
L 666.886284 -50.70339 
L 667.40599 -50.70339 
L 667.925696 -50.70339 
L 668.445401 -50.70339 
L 668.965107 -50.70339 
L 669.484813 -50.70339 
L 670.004519 -50.70339 
L 670.524225 -50.70339 
L 671.043931 -50.70339 
L 671.563636 -50.70339 
L 671.563636 -50.70339 
L 671.563636 -50.70339 
L 671.043931 -50.70339 
L 670.524225 -50.70339 
L 670.004519 -50.70339 
L 669.484813 -50.70339 
L 668.965107 -50.70339 
L 668.445401 -50.70339 
L 667.925696 -50.70339 
L 667.40599 -50.70339 
L 666.886284 -50.70339 
L 666.366578 -50.70339 
L 665.846872 -50.70339 
L 665.327167 -50.70339 
L 664.807461 -50.70339 
L 664.287755 -50.70339 
L 663.768049 -50.70339 
L 663.248343 -50.70339 
L 662.728638 -50.70339 
L 662.208932 -50.70339 
L 661.689226 -50.70339 
L 661.16952 -50.70339 
L 660.649814 -50.70339 
L 660.130108 -50.70339 
L 659.610403 -50.70339 
L 659.090697 -50.70339 
L 658.570991 -50.70339 
L 658.051285 -50.70339 
L 657.531579 -50.70339 
L 657.011874 -50.70339 
L 656.492168 -50.70339 
L 655.972462 -50.70339 
L 655.452756 -50.70339 
L 654.93305 -50.70339 
L 654.413344 -50.70339 
L 653.893639 -50.70339 
L 653.373933 -50.70339 
L 652.854227 -50.70339 
L 652.334521 -50.70339 
L 651.814815 -50.70339 
L 651.29511 -50.70339 
L 650.775404 -50.70339 
L 650.255698 -50.70339 
L 649.735992 -50.70339 
L 649.216286 -50.70339 
L 648.69658 -50.70339 
L 648.176875 -50.70339 
L 647.657169 -50.70339 
L 647.137463 -50.70339 
L 646.617757 -50.70339 
L 646.098051 -50.70339 
L 645.578346 -50.70339 
L 645.05864 -50.70339 
L 644.538934 -50.70339 
L 644.019228 -50.70339 
L 643.499522 -50.70339 
L 642.979817 -50.70339 
L 642.460111 -50.70339 
L 641.940405 -50.70339 
L 641.420699 -50.70339 
L 640.900993 -50.70339 
L 640.381287 -50.70339 
L 639.861582 -50.70339 
L 639.341876 -50.70339 
L 638.82217 -50.70339 
L 638.302464 -50.70339 
L 637.782758 -50.70339 
L 637.263053 -50.70339 
L 636.743347 -50.70339 
L 636.223641 -50.70339 
L 635.703935 -50.70339 
L 635.184229 -50.70339 
L 634.664523 -50.70339 
L 634.144818 -50.70339 
L 633.625112 -50.70339 
L 633.105406 -50.70339 
L 632.5857 -50.70339 
L 632.065994 -50.70339 
L 631.546289 -50.70339 
L 631.026583 -50.70339 
L 630.506877 -50.70339 
L 629.987171 -50.70339 
L 629.467465 -50.70339 
L 628.947759 -50.70339 
L 628.428054 -50.70339 
L 627.908348 -50.70339 
L 627.388642 -50.70339 
L 626.868936 -50.70339 
L 626.34923 -50.70339 
L 625.829525 -50.70339 
L 625.309819 -50.70339 
L 624.790113 -50.70339 
L 624.270407 -50.70339 
L 623.750701 -50.70339 
L 623.230996 -50.70339 
L 622.71129 -50.70339 
L 622.191584 -50.70339 
L 621.671878 -50.70339 
L 621.152172 -50.70339 
L 620.632466 -50.70339 
L 620.112761 -50.70339 
L 619.593055 -50.70339 
L 619.073349 -50.70339 
L 618.553643 -50.70339 
L 618.033937 -50.70339 
L 617.514232 -50.70339 
L 616.994526 -50.70339 
L 616.47482 -50.70339 
L 615.955114 -50.70339 
L 615.435408 -50.70339 
L 614.915702 -50.70339 
L 614.395997 -50.70339 
L 613.876291 -50.70339 
L 613.356585 -50.70339 
L 612.836879 -50.70339 
L 612.317173 -50.70339 
L 611.797468 -50.70339 
L 611.277762 -50.70339 
L 610.758056 -50.70339 
L 610.23835 -50.70339 
L 609.718644 -50.70339 
L 609.198939 -50.70339 
L 608.679233 -50.70339 
L 608.159527 -50.70339 
L 607.639821 -50.70339 
L 607.120115 -50.70339 
L 606.600409 -50.70339 
L 606.080704 -50.70339 
L 605.560998 -50.70339 
L 605.041292 -50.70339 
L 604.521586 -50.70339 
L 604.00188 -50.70339 
L 603.482175 -50.70339 
L 602.962469 -50.70339 
L 602.442763 -50.70339 
L 601.923057 -50.70339 
L 601.403351 -50.70339 
L 600.883645 -50.70339 
L 600.36394 -50.70339 
L 599.844234 -50.70339 
L 599.324528 -50.70339 
L 598.804822 -50.70339 
L 598.285116 -50.70339 
L 597.765411 -50.70339 
L 597.245705 -50.70339 
L 596.725999 -50.70339 
L 596.206293 -50.70339 
L 595.686587 -50.70339 
L 595.166881 -50.70339 
L 594.647176 -50.70339 
L 594.12747 -50.70339 
L 593.607764 -50.70339 
L 593.088058 -50.70339 
L 592.568352 -50.70339 
L 592.048647 -50.70339 
L 591.528941 -50.70339 
L 591.009235 -50.70339 
L 590.489529 -50.70339 
L 589.969823 -50.70339 
L 589.450118 -50.70339 
L 588.930412 -50.70339 
L 588.410706 -50.70339 
L 587.891 -50.70339 
L 587.371294 -50.70339 
L 586.851588 -50.70339 
L 586.331883 -50.70339 
L 585.812177 -50.70339 
L 585.292471 -50.70339 
L 584.772765 -50.70339 
L 584.253059 -50.70339 
L 583.733354 -50.70339 
L 583.213648 -50.70339 
L 582.693942 -50.70339 
L 582.174236 -50.70339 
L 581.65453 -50.70339 
L 581.134824 -50.70339 
L 580.615119 -50.70339 
L 580.095413 -50.70339 
L 579.575707 -50.70339 
L 579.056001 -50.70339 
L 578.536295 -50.70339 
L 578.01659 -50.70339 
L 577.496884 -50.70339 
L 576.977178 -50.70339 
L 576.457472 -50.70339 
L 575.937766 -50.70339 
L 575.418061 -50.70339 
L 574.898355 -50.70339 
L 574.378649 -50.70339 
L 573.858943 -50.70339 
L 573.339237 -50.70339 
L 572.819531 -50.70339 
L 572.299826 -50.70339 
L 571.78012 -50.70339 
L 571.260414 -50.70339 
L 570.740708 -50.70339 
L 570.221002 -50.70339 
L 569.701297 -50.70339 
L 569.181591 -50.70339 
L 568.661885 -50.70339 
L 568.142179 -50.70339 
L 567.622473 -50.70339 
L 567.102767 -50.70339 
L 566.583062 -50.70339 
L 566.063356 -50.70339 
L 565.54365 -50.70339 
L 565.023944 -50.70339 
L 564.504238 -50.70339 
L 563.984533 -50.70339 
L 563.464827 -50.70339 
L 562.945121 -50.70339 
L 562.425415 -50.70339 
L 561.905709 -50.70339 
L 561.386003 -50.70339 
L 560.866298 -50.70339 
L 560.346592 -50.70339 
L 559.826886 -50.70339 
L 559.30718 -50.70339 
L 558.787474 -50.70339 
L 558.267769 -50.70339 
L 557.748063 -50.70339 
L 557.228357 -50.70339 
L 556.708651 -50.70339 
L 556.188945 -50.70339 
L 555.66924 -50.70339 
L 555.149534 -50.70339 
L 554.629828 -50.70339 
L 554.110122 -50.70339 
L 553.590416 -50.70339 
L 553.07071 -50.70339 
L 552.551005 -50.70339 
L 552.031299 -50.70339 
L 551.511593 -50.70339 
L 550.991887 -50.70339 
L 550.472181 -50.70339 
L 549.952476 -50.70339 
L 549.43277 -50.70339 
L 548.913064 -50.70339 
L 548.393358 -50.70339 
L 547.873652 -50.70339 
L 547.353946 -50.70339 
L 546.834241 -50.70339 
L 546.314535 -50.70339 
L 545.794829 -50.70339 
L 545.275123 -50.70339 
L 544.755417 -50.70339 
L 544.235712 -50.70339 
L 543.716006 -50.70339 
L 543.1963 -50.70339 
L 542.676594 -50.70339 
L 542.156888 -50.70339 
L 541.637183 -50.70339 
L 541.117477 -50.70339 
L 540.597771 -50.70339 
L 540.078065 -50.70339 
L 539.558359 -50.70339 
L 539.038653 -50.70339 
L 538.518948 -50.70339 
L 537.999242 -50.70339 
L 537.479536 -50.70339 
L 536.95983 -50.70339 
L 536.440124 -50.70339 
L 535.920419 -50.70339 
L 535.400713 -50.70339 
L 534.881007 -50.70339 
L 534.361301 -50.70339 
L 533.841595 -50.70339 
L 533.321889 -50.70339 
L 532.802184 -50.70339 
L 532.282478 -50.70339 
L 531.762772 -50.70339 
L 531.243066 -50.70339 
L 530.72336 -50.70339 
L 530.203655 -50.70339 
L 529.683949 -50.70339 
L 529.164243 -50.70339 
L 528.644537 -50.70339 
L 528.124831 -50.70339 
L 527.605125 -50.70339 
L 527.08542 -50.70339 
L 526.565714 -50.70339 
L 526.046008 -50.70339 
L 525.526302 -50.70339 
L 525.006596 -50.70339 
L 524.486891 -50.70339 
L 523.967185 -50.70339 
L 523.447479 -50.70339 
L 522.927773 -50.70339 
L 522.408067 -50.70339 
L 521.888362 -50.70339 
L 521.368656 -50.70339 
L 520.84895 -50.70339 
L 520.329244 -50.70339 
L 519.809538 -50.70339 
L 519.289832 -50.70339 
L 518.770127 -50.70339 
L 518.250421 -50.70339 
L 517.730715 -50.70339 
L 517.211009 -50.70339 
L 516.691303 -50.70339 
L 516.171598 -50.70339 
L 515.651892 -50.70339 
L 515.132186 -50.70339 
L 514.61248 -50.70339 
L 514.092774 -50.70339 
L 513.573068 -50.70339 
L 513.053363 -50.70339 
L 512.533657 -50.70339 
L 512.013951 -50.70339 
L 511.494245 -50.70339 
L 510.974539 -50.70339 
L 510.454834 -50.70339 
L 509.935128 -50.70339 
L 509.415422 -50.70339 
L 508.895716 -50.70339 
L 508.37601 -50.70339 
L 507.856304 -50.70339 
L 507.336599 -50.70339 
L 506.816893 -50.70339 
L 506.297187 -50.70339 
L 505.777481 -50.70339 
L 505.257775 -50.70339 
L 504.73807 -50.70339 
L 504.218364 -50.70339 
L 503.698658 -50.70339 
L 503.178952 -50.70339 
L 502.659246 -50.70339 
L 502.139541 -50.70339 
L 501.619835 -50.70339 
L 501.100129 -50.70339 
L 500.580423 -50.70339 
L 500.060717 -50.70339 
L 499.541011 -50.70339 
L 499.021306 -50.70339 
L 498.5016 -50.70339 
L 497.981894 -50.70339 
L 497.462188 -50.70339 
L 496.942482 -50.70339 
L 496.422777 -50.70339 
L 495.903071 -50.70339 
L 495.383365 -50.70339 
L 494.863659 -50.70339 
L 494.343953 -50.70339 
L 493.824247 -50.70339 
L 493.304542 -50.70339 
L 492.784836 -50.70339 
L 492.26513 -50.70339 
L 491.745424 -50.70339 
L 491.225718 -50.70339 
L 490.706013 -50.70339 
L 490.186307 -50.70339 
L 489.666601 -50.70339 
L 489.146895 -50.70339 
L 488.627189 -50.70339 
L 488.107484 -50.70339 
L 487.587778 -50.70339 
L 487.068072 -50.70339 
L 486.548366 -50.70339 
L 486.02866 -50.70339 
L 485.508954 -50.70339 
L 484.989249 -50.70339 
L 484.469543 -50.70339 
L 483.949837 -50.70339 
L 483.430131 -50.70339 
L 482.910425 -50.70339 
L 482.39072 -50.70339 
L 481.871014 -50.70339 
L 481.351308 -50.70339 
L 480.831602 -50.70339 
L 480.311896 -50.70339 
L 479.79219 -50.70339 
L 479.272485 -50.70339 
L 478.752779 -50.70339 
L 478.233073 -50.70339 
L 477.713367 -50.70339 
L 477.193661 -50.70339 
L 476.673956 -50.70339 
L 476.15425 -50.70339 
L 475.634544 -50.70339 
L 475.114838 -50.70339 
L 474.595132 -50.70339 
L 474.075426 -50.70339 
L 473.555721 -50.70339 
L 473.036015 -50.70339 
L 472.516309 -50.70339 
L 471.996603 -50.70339 
L 471.476897 -50.70339 
L 470.957192 -50.70339 
L 470.437486 -50.70339 
L 469.91778 -50.70339 
L 469.398074 -50.70339 
L 468.878368 -50.70339 
L 468.358663 -50.70339 
L 467.838957 -50.70339 
L 467.319251 -50.70339 
L 466.799545 -50.70339 
L 466.279839 -50.70339 
L 465.760133 -50.70339 
L 465.240428 -50.70339 
L 464.720722 -50.70339 
L 464.201016 -50.70339 
L 463.68131 -50.70339 
L 463.161604 -50.70339 
L 462.641899 -50.70339 
L 462.122193 -50.70339 
L 461.602487 -50.70339 
L 461.082781 -50.70339 
L 460.563075 -50.70339 
L 460.043369 -50.70339 
L 459.523664 -50.70339 
L 459.003958 -50.70339 
L 458.484252 -50.70339 
L 457.964546 -50.70339 
L 457.44484 -50.70339 
L 456.925135 -50.70339 
L 456.405429 -50.70339 
L 455.885723 -50.70339 
L 455.366017 -50.70339 
L 454.846311 -50.70339 
L 454.326606 -50.70339 
L 453.8069 -50.70339 
L 453.287194 -50.70339 
L 452.767488 -50.70339 
L 452.247782 -50.70339 
L 451.728076 -50.70339 
L 451.208371 -50.70339 
L 450.688665 -50.70339 
L 450.168959 -50.70339 
L 449.649253 -50.70339 
L 449.129547 -50.70339 
L 448.609842 -50.70339 
L 448.090136 -50.70339 
L 447.57043 -50.70339 
L 447.050724 -50.70339 
L 446.531018 -50.70339 
L 446.011312 -50.70339 
L 445.491607 -50.70339 
L 444.971901 -50.70339 
L 444.452195 -50.70339 
L 443.932489 -50.70339 
L 443.412783 -50.70339 
L 442.893078 -50.70339 
L 442.373372 -50.70339 
L 441.853666 -50.70339 
L 441.33396 -50.70339 
L 440.814254 -50.70339 
L 440.294548 -50.70339 
L 439.774843 -50.70339 
L 439.255137 -50.70339 
L 438.735431 -50.70339 
L 438.215725 -50.70339 
L 437.696019 -50.70339 
L 437.176314 -50.70339 
L 436.656608 -50.70339 
L 436.136902 -50.70339 
L 435.617196 -50.70339 
L 435.09749 -50.70339 
L 434.577785 -50.70339 
L 434.058079 -50.70339 
L 433.538373 -50.70339 
L 433.018667 -50.70339 
L 432.498961 -50.70339 
L 431.979255 -50.70339 
L 431.45955 -50.70339 
L 430.939844 -50.70339 
L 430.420138 -50.70339 
L 429.900432 -50.70339 
L 429.380726 -50.70339 
L 428.861021 -50.70339 
L 428.341315 -50.70339 
L 427.821609 -50.70339 
L 427.301903 -50.70339 
L 426.782197 -50.70339 
L 426.262491 -50.70339 
L 425.742786 -50.70339 
L 425.22308 -50.70339 
L 424.703374 -50.70339 
L 424.183668 -50.70339 
L 423.663962 -50.70339 
L 423.144257 -50.70339 
L 422.624551 -50.70339 
L 422.104845 -50.70339 
L 421.585139 -50.70339 
L 421.065433 -50.70339 
L 420.545728 -50.70339 
L 420.026022 -50.70339 
L 419.506316 -50.70339 
L 418.98661 -50.70339 
L 418.466904 -50.70339 
L 417.947198 -50.70339 
L 417.427493 -50.70339 
L 416.907787 -50.70339 
L 416.388081 -50.70339 
L 415.868375 -50.70339 
L 415.348669 -50.70339 
L 414.828964 -50.70339 
L 414.309258 -50.70339 
L 413.789552 -50.70339 
L 413.269846 -50.70339 
L 412.75014 -50.70339 
L 412.230434 -50.70339 
L 411.710729 -50.70339 
L 411.191023 -50.70339 
L 410.671317 -50.70339 
L 410.151611 -50.70339 
L 409.631905 -50.70339 
L 409.1122 -50.70339 
L 408.592494 -50.70339 
L 408.072788 -50.70339 
L 407.553082 -50.70339 
L 407.033376 -50.70339 
L 406.51367 -50.70339 
L 405.993965 -50.70339 
L 405.474259 -50.70339 
L 404.954553 -50.70339 
L 404.434847 -50.70339 
L 403.915141 -50.70339 
L 403.395436 -50.70339 
L 402.87573 -50.70339 
L 402.356024 -50.70339 
L 401.836318 -50.70339 
L 401.316612 -50.70339 
L 400.796907 -50.70339 
L 400.277201 -50.70339 
L 399.757495 -50.70339 
L 399.237789 -50.70339 
L 398.718083 -50.70339 
L 398.198377 -50.70339 
L 397.678672 -50.70339 
L 397.158966 -50.70339 
L 396.63926 -50.70339 
L 396.119554 -50.70339 
L 395.599848 -50.70339 
L 395.080143 -50.70339 
L 394.560437 -50.70339 
L 394.040731 -50.70339 
L 393.521025 -50.70339 
L 393.001319 -50.70339 
L 392.481613 -50.70339 
L 391.961908 -50.70339 
L 391.442202 -50.70339 
L 390.922496 -50.70339 
L 390.40279 -50.70339 
L 389.883084 -50.70339 
L 389.363379 -50.70339 
L 388.843673 -50.70339 
L 388.323967 -50.70339 
L 387.804261 -50.70339 
L 387.284555 -50.70339 
L 386.764849 -50.70339 
L 386.245144 -50.70339 
L 385.725438 -50.70339 
L 385.205732 -50.70339 
L 384.686026 -50.70339 
L 384.16632 -50.70339 
L 383.646615 -50.70339 
L 383.126909 -50.70339 
L 382.607203 -50.70339 
L 382.087497 -50.70339 
L 381.567791 -50.70339 
L 381.048086 -50.70339 
L 380.52838 -50.70339 
L 380.008674 -50.70339 
L 379.488968 -50.70339 
L 378.969262 -50.70339 
L 378.449556 -50.70339 
L 377.929851 -50.70339 
L 377.410145 -50.70339 
L 376.890439 -50.70339 
L 376.370733 -50.70339 
L 375.851027 -50.70339 
L 375.331322 -50.70339 
L 374.811616 -50.70339 
L 374.29191 -50.70339 
L 373.772204 -50.70339 
L 373.252498 -50.70339 
L 372.732792 -50.70339 
L 372.213087 -50.70339 
L 371.693381 -50.70339 
L 371.173675 -50.70339 
L 370.653969 -50.70339 
L 370.134263 -50.70339 
L 369.614558 -50.70339 
L 369.094852 -50.70339 
L 368.575146 -50.70339 
z
" style="stroke: #2a78d6; stroke-opacity: 0.45"/>
    </defs>
    <g clip-path="url(#p501a6c2b3b)">
     <use xlink:href="#m3bdbf5acb5" x="0" y="331.2" style="fill: #2a78d6; fill-opacity: 0.45; stroke: #2a78d6; stroke-opacity: 0.45"/>
    </g>
   </g>
   <g id="PolyCollection_2">
    <defs>
     <path id="m814a72b0a2" d="M 48.436364 -50.70339 
L 48.436364 -50.70339 
L 48.956069 -50.70339 
L 49.475775 -50.70339 
L 49.995481 -50.70339 
L 50.515187 -50.70339 
L 51.034893 -50.70339 
L 51.554599 -50.70339 
L 52.074304 -50.70339 
L 52.59401 -50.70339 
L 53.113716 -50.70339 
L 53.633422 -50.70339 
L 54.153128 -50.70339 
L 54.672833 -50.70339 
L 55.192539 -50.70339 
L 55.712245 -50.70339 
L 56.231951 -50.70339 
L 56.751657 -50.70339 
L 57.271362 -50.70339 
L 57.791068 -50.70339 
L 58.310774 -50.70339 
L 58.83048 -50.70339 
L 59.350186 -50.70339 
L 59.869892 -50.70339 
L 60.389597 -50.70339 
L 60.909303 -50.70339 
L 61.429009 -50.70339 
L 61.948715 -50.70339 
L 62.468421 -50.70339 
L 62.988126 -50.70339 
L 63.507832 -50.70339 
L 64.027538 -50.70339 
L 64.547244 -50.70339 
L 65.06695 -50.70339 
L 65.586656 -50.70339 
L 66.106361 -50.70339 
L 66.626067 -50.70339 
L 67.145773 -50.70339 
L 67.665479 -50.70339 
L 68.185185 -50.70339 
L 68.70489 -50.70339 
L 69.224596 -50.70339 
L 69.744302 -50.70339 
L 70.264008 -50.70339 
L 70.783714 -50.70339 
L 71.30342 -50.70339 
L 71.823125 -50.70339 
L 72.342831 -50.70339 
L 72.862537 -50.70339 
L 73.382243 -50.70339 
L 73.901949 -50.70339 
L 74.421654 -50.70339 
L 74.94136 -50.70339 
L 75.461066 -50.70339 
L 75.980772 -50.70339 
L 76.500478 -50.70339 
L 77.020183 -50.70339 
L 77.539889 -50.70339 
L 78.059595 -50.70339 
L 78.579301 -50.70339 
L 79.099007 -50.70339 
L 79.618713 -50.703391 
L 80.138418 -50.703391 
L 80.658124 -50.703391 
L 81.17783 -50.703391 
L 81.697536 -50.703391 
L 82.217242 -50.703391 
L 82.736947 -50.703391 
L 83.256653 -50.703391 
L 83.776359 -50.703391 
L 84.296065 -50.703391 
L 84.815771 -50.703391 
L 85.335477 -50.703391 
L 85.855182 -50.703391 
L 86.374888 -50.703391 
L 86.894594 -50.703391 
L 87.4143 -50.703391 
L 87.934006 -50.703391 
L 88.453711 -50.703391 
L 88.973417 -50.703391 
L 89.493123 -50.703391 
L 90.012829 -50.703391 
L 90.532535 -50.703391 
L 91.052241 -50.703391 
L 91.571946 -50.703391 
L 92.091652 -50.703391 
L 92.611358 -50.703391 
L 93.131064 -50.703391 
L 93.65077 -50.703391 
L 94.170475 -50.703391 
L 94.690181 -50.703391 
L 95.209887 -50.703392 
L 95.729593 -50.703392 
L 96.249299 -50.703392 
L 96.769004 -50.703392 
L 97.28871 -50.703392 
L 97.808416 -50.703392 
L 98.328122 -50.703392 
L 98.847828 -50.703392 
L 99.367534 -50.703392 
L 99.887239 -50.703392 
L 100.406945 -50.703393 
L 100.926651 -50.703393 
L 101.446357 -50.703393 
L 101.966063 -50.703393 
L 102.485768 -50.703393 
L 103.005474 -50.703393 
L 103.52518 -50.703393 
L 104.044886 -50.703394 
L 104.564592 -50.703394 
L 105.084298 -50.703394 
L 105.604003 -50.703394 
L 106.123709 -50.703394 
L 106.643415 -50.703395 
L 107.163121 -50.703395 
L 107.682827 -50.703395 
L 108.202532 -50.703395 
L 108.722238 -50.703396 
L 109.241944 -50.703396 
L 109.76165 -50.703396 
L 110.281356 -50.703397 
L 110.801061 -50.703397 
L 111.320767 -50.703397 
L 111.840473 -50.703398 
L 112.360179 -50.703398 
L 112.879885 -50.703399 
L 113.399591 -50.703399 
L 113.919296 -50.7034 
L 114.439002 -50.7034 
L 114.958708 -50.703401 
L 115.478414 -50.703401 
L 115.99812 -50.703402 
L 116.517825 -50.703402 
L 117.037531 -50.703403 
L 117.557237 -50.703404 
L 118.076943 -50.703404 
L 118.596649 -50.703405 
L 119.116355 -50.703406 
L 119.63606 -50.703407 
L 120.155766 -50.703408 
L 120.675472 -50.703409 
L 121.195178 -50.70341 
L 121.714884 -50.703411 
L 122.234589 -50.703412 
L 122.754295 -50.703413 
L 123.274001 -50.703414 
L 123.793707 -50.703415 
L 124.313413 -50.703417 
L 124.833119 -50.703418 
L 125.352824 -50.70342 
L 125.87253 -50.703421 
L 126.392236 -50.703423 
L 126.911942 -50.703425 
L 127.431648 -50.703426 
L 127.951353 -50.703428 
L 128.471059 -50.70343 
L 128.990765 -50.703432 
L 129.510471 -50.703435 
L 130.030177 -50.703437 
L 130.549882 -50.703439 
L 131.069588 -50.703442 
L 131.589294 -50.703445 
L 132.109 -50.703447 
L 132.628706 -50.70345 
L 133.148412 -50.703454 
L 133.668117 -50.703457 
L 134.187823 -50.70346 
L 134.707529 -50.703464 
L 135.227235 -50.703468 
L 135.746941 -50.703472 
L 136.266646 -50.703476 
L 136.786352 -50.70348 
L 137.306058 -50.703485 
L 137.825764 -50.70349 
L 138.34547 -50.703495 
L 138.865176 -50.7035 
L 139.384881 -50.703506 
L 139.904587 -50.703511 
L 140.424293 -50.703518 
L 140.943999 -50.703524 
L 141.463705 -50.703531 
L 141.98341 -50.703538 
L 142.503116 -50.703545 
L 143.022822 -50.703553 
L 143.542528 -50.703561 
L 144.062234 -50.70357 
L 144.581939 -50.703579 
L 145.101645 -50.703588 
L 145.621351 -50.703598 
L 146.141057 -50.703608 
L 146.660763 -50.703619 
L 147.180469 -50.70363 
L 147.700174 -50.703642 
L 148.21988 -50.703655 
L 148.739586 -50.703668 
L 149.259292 -50.703681 
L 149.778998 -50.703695 
L 150.298703 -50.70371 
L 150.818409 -50.703726 
L 151.338115 -50.703742 
L 151.857821 -50.703759 
L 152.377527 -50.703777 
L 152.897233 -50.703796 
L 153.416938 -50.703816 
L 153.936644 -50.703836 
L 154.45635 -50.703858 
L 154.976056 -50.70388 
L 155.495762 -50.703904 
L 156.015467 -50.703929 
L 156.535173 -50.703954 
L 157.054879 -50.703981 
L 157.574585 -50.704009 
L 158.094291 -50.704039 
L 158.613997 -50.70407 
L 159.133702 -50.704102 
L 159.653408 -50.704136 
L 160.173114 -50.704171 
L 160.69282 -50.704208 
L 161.212526 -50.704246 
L 161.732231 -50.704286 
L 162.251937 -50.704328 
L 162.771643 -50.704372 
L 163.291349 -50.704418 
L 163.811055 -50.704466 
L 164.33076 -50.704516 
L 164.850466 -50.704569 
L 165.370172 -50.704623 
L 165.889878 -50.70468 
L 166.409584 -50.70474 
L 166.92929 -50.704802 
L 167.448995 -50.704867 
L 167.968701 -50.704935 
L 168.488407 -50.705006 
L 169.008113 -50.70508 
L 169.527819 -50.705157 
L 170.047524 -50.705237 
L 170.56723 -50.705321 
L 171.086936 -50.705409 
L 171.606642 -50.7055 
L 172.126348 -50.705596 
L 172.646054 -50.705695 
L 173.165759 -50.705799 
L 173.685465 -50.705907 
L 174.205171 -50.70602 
L 174.724877 -50.706138 
L 175.244583 -50.706261 
L 175.764288 -50.706389 
L 176.283994 -50.706523 
L 176.8037 -50.706662 
L 177.323406 -50.706807 
L 177.843112 -50.706958 
L 178.362817 -50.707116 
L 178.882523 -50.70728 
L 179.402229 -50.707451 
L 179.921935 -50.707629 
L 180.441641 -50.707815 
L 180.961347 -50.708008 
L 181.481052 -50.70821 
L 182.000758 -50.70842 
L 182.520464 -50.708638 
L 183.04017 -50.708866 
L 183.559876 -50.709103 
L 184.079581 -50.70935 
L 184.599287 -50.709607 
L 185.118993 -50.709874 
L 185.638699 -50.710153 
L 186.158405 -50.710442 
L 186.678111 -50.710744 
L 187.197816 -50.711058 
L 187.717522 -50.711384 
L 188.237228 -50.711724 
L 188.756934 -50.712078 
L 189.27664 -50.712445 
L 189.796345 -50.712828 
L 190.316051 -50.713226 
L 190.835757 -50.713639 
L 191.355463 -50.714069 
L 191.875169 -50.714517 
L 192.394875 -50.714982 
L 192.91458 -50.715465 
L 193.434286 -50.715968 
L 193.953992 -50.71649 
L 194.473698 -50.717033 
L 194.993404 -50.717597 
L 195.513109 -50.718184 
L 196.032815 -50.718793 
L 196.552521 -50.719426 
L 197.072227 -50.720084 
L 197.591933 -50.720767 
L 198.111638 -50.721476 
L 198.631344 -50.722213 
L 199.15105 -50.722979 
L 199.670756 -50.723773 
L 200.190462 -50.724598 
L 200.710168 -50.725455 
L 201.229873 -50.726345 
L 201.749579 -50.727268 
L 202.269285 -50.728226 
L 202.788991 -50.729221 
L 203.308697 -50.730253 
L 203.828402 -50.731324 
L 204.348108 -50.732435 
L 204.867814 -50.733588 
L 205.38752 -50.734784 
L 205.907226 -50.736025 
L 206.426932 -50.737312 
L 206.946637 -50.738646 
L 207.466343 -50.74003 
L 207.986049 -50.741465 
L 208.505755 -50.742954 
L 209.025461 -50.744496 
L 209.545166 -50.746096 
L 210.064872 -50.747754 
L 210.584578 -50.749472 
L 211.104284 -50.751253 
L 211.62399 -50.753098 
L 212.143696 -50.755011 
L 212.663401 -50.756992 
L 213.183107 -50.759045 
L 213.702813 -50.761171 
L 214.222519 -50.763374 
L 214.742225 -50.765655 
L 215.26193 -50.768018 
L 215.781636 -50.770465 
L 216.301342 -50.772998 
L 216.821048 -50.775621 
L 217.340754 -50.778337 
L 217.860459 -50.781148 
L 218.380165 -50.784058 
L 218.899871 -50.78707 
L 219.419577 -50.790187 
L 219.939283 -50.793412 
L 220.458989 -50.79675 
L 220.978694 -50.800203 
L 221.4984 -50.803775 
L 222.018106 -50.80747 
L 222.537812 -50.811293 
L 223.057518 -50.815246 
L 223.577223 -50.819334 
L 224.096929 -50.823562 
L 224.616635 -50.827933 
L 225.136341 -50.832452 
L 225.656047 -50.837125 
L 226.175753 -50.841954 
L 226.695458 -50.846946 
L 227.215164 -50.852105 
L 227.73487 -50.857437 
L 228.254576 -50.862947 
L 228.774282 -50.868639 
L 229.293987 -50.87452 
L 229.813693 -50.880596 
L 230.333399 -50.886872 
L 230.853105 -50.893354 
L 231.372811 -50.900049 
L 231.892516 -50.906963 
L 232.412222 -50.914101 
L 232.931928 -50.921472 
L 233.451634 -50.929082 
L 233.97134 -50.936937 
L 234.491046 -50.945046 
L 235.010751 -50.953415 
L 235.530457 -50.962052 
L 236.050163 -50.970965 
L 236.569869 -50.980162 
L 237.089575 -50.989651 
L 237.60928 -50.99944 
L 238.128986 -51.009538 
L 238.648692 -51.019954 
L 239.168398 -51.030697 
L 239.688104 -51.041776 
L 240.20781 -51.0532 
L 240.727515 -51.06498 
L 241.247221 -51.077125 
L 241.766927 -51.089645 
L 242.286633 -51.102551 
L 242.806339 -51.115854 
L 243.326044 -51.129564 
L 243.84575 -51.143693 
L 244.365456 -51.158252 
L 244.885162 -51.173253 
L 245.404868 -51.188708 
L 245.924574 -51.204629 
L 246.444279 -51.221028 
L 246.963985 -51.237919 
L 247.483691 -51.255315 
L 248.003397 -51.273229 
L 248.523103 -51.291675 
L 249.042808 -51.310667 
L 249.562514 -51.330219 
L 250.08222 -51.350347 
L 250.601926 -51.371064 
L 251.121632 -51.392387 
L 251.641337 -51.414331 
L 252.161043 -51.436912 
L 252.680749 -51.460147 
L 253.200455 -51.484052 
L 253.720161 -51.508644 
L 254.239867 -51.533942 
L 254.759572 -51.559961 
L 255.279278 -51.586722 
L 255.798984 -51.614242 
L 256.31869 -51.64254 
L 256.838396 -51.671636 
L 257.358101 -51.701549 
L 257.877807 -51.7323 
L 258.397513 -51.763909 
L 258.917219 -51.796397 
L 259.436925 -51.829786 
L 259.956631 -51.864096 
L 260.476336 -51.899351 
L 260.996042 -51.935574 
L 261.515748 -51.972786 
L 262.035454 -52.011012 
L 262.55516 -52.050276 
L 263.074865 -52.090603 
L 263.594571 -52.132016 
L 264.114277 -52.174542 
L 264.633983 -52.218206 
L 265.153689 -52.263035 
L 265.673394 -52.309056 
L 266.1931 -52.356295 
L 266.712806 -52.404781 
L 267.232512 -52.454541 
L 267.752218 -52.505606 
L 268.271924 -52.558003 
L 268.791629 -52.611763 
L 269.311335 -52.666916 
L 269.831041 -52.723493 
L 270.350747 -52.781526 
L 270.870453 -52.841045 
L 271.390158 -52.902084 
L 271.909864 -52.964676 
L 272.42957 -53.028854 
L 272.949276 -53.094652 
L 273.468982 -53.162105 
L 273.988688 -53.231248 
L 274.508393 -53.302116 
L 275.028099 -53.374746 
L 275.547805 -53.449175 
L 276.067511 -53.525441 
L 276.587217 -53.60358 
L 277.106922 -53.683633 
L 277.626628 -53.765637 
L 278.146334 -53.849633 
L 278.66604 -53.93566 
L 279.185746 -54.023761 
L 279.705452 -54.113975 
L 280.225157 -54.206346 
L 280.744863 -54.300916 
L 281.264569 -54.397728 
L 281.784275 -54.496826 
L 282.303981 -54.598255 
L 282.823686 -54.702058 
L 283.343392 -54.808283 
L 283.863098 -54.916975 
L 284.382804 -55.028181 
L 284.90251 -55.141949 
L 285.422215 -55.258326 
L 285.941921 -55.37736 
L 286.461627 -55.499102 
L 286.981333 -55.623601 
L 287.501039 -55.750907 
L 288.020745 -55.88107 
L 288.54045 -56.014144 
L 289.060156 -56.150179 
L 289.579862 -56.289229 
L 290.099568 -56.431346 
L 290.619274 -56.576585 
L 291.138979 -56.724999 
L 291.658685 -56.876645 
L 292.178391 -57.031576 
L 292.698097 -57.18985 
L 293.217803 -57.351523 
L 293.737509 -57.516653 
L 294.257214 -57.685296 
L 294.77692 -57.857511 
L 295.296626 -58.033357 
L 295.816332 -58.212893 
L 296.336038 -58.396179 
L 296.855743 -58.583276 
L 297.375449 -58.774243 
L 297.895155 -58.969143 
L 298.414861 -59.168037 
L 298.934567 -59.370987 
L 299.454272 -59.578056 
L 299.973978 -59.789307 
L 300.493684 -60.004804 
L 301.01339 -60.22461 
L 301.533096 -60.448791 
L 302.052802 -60.677411 
L 302.572507 -60.910534 
L 303.092213 -61.148227 
L 303.611919 -61.390556 
L 304.131625 -61.637587 
L 304.651331 -61.889386 
L 305.171036 -62.146021 
L 305.690742 -62.407558 
L 306.210448 -62.674066 
L 306.730154 -62.945612 
L 307.24986 -63.222263 
L 307.769566 -63.504089 
L 308.289271 -63.791158 
L 308.808977 -64.083539 
L 309.328683 -64.3813 
L 309.848389 -64.68451 
L 310.368095 -64.993239 
L 310.8878 -65.307557 
L 311.407506 -65.627532 
L 311.927212 -65.953233 
L 312.446918 -66.284732 
L 312.966624 -66.622096 
L 313.48633 -66.965397 
L 314.006035 -67.314702 
L 314.525741 -67.670083 
L 315.045447 -68.031608 
L 315.565153 -68.399347 
L 316.084859 -68.773369 
L 316.604564 -69.153743 
L 317.12427 -69.540539 
L 317.643976 -69.933824 
L 318.163682 -70.333669 
L 318.683388 -70.740141 
L 319.203093 -71.153308 
L 319.722799 -71.573238 
L 320.242505 -71.999999 
L 320.762211 -72.433657 
L 321.281917 -72.87428 
L 321.801623 -73.321933 
L 322.321328 -73.776683 
L 322.841034 -74.238594 
L 323.36074 -74.707732 
L 323.880446 -75.184161 
L 324.400152 -75.667945 
L 324.919857 -76.159147 
L 325.439563 -76.657829 
L 325.959269 -77.164053 
L 326.478975 -77.67788 
L 326.998681 -78.19937 
L 327.518387 -78.728583 
L 328.038092 -79.265578 
L 328.557798 -79.810412 
L 329.077504 -80.363143 
L 329.59721 -80.923826 
L 330.116916 -81.492517 
L 330.636621 -82.069269 
L 331.156327 -82.654136 
L 331.676033 -83.247169 
L 332.195739 -83.848419 
L 332.715445 -84.457937 
L 333.235151 -85.07577 
L 333.754856 -85.701966 
L 334.274562 -86.336571 
L 334.794268 -86.979629 
L 335.313974 -87.631183 
L 335.83368 -88.291277 
L 336.353385 -88.959949 
L 336.873091 -89.63724 
L 337.392797 -90.323187 
L 337.912503 -91.017826 
L 338.432209 -91.721191 
L 338.951914 -92.433315 
L 339.47162 -93.154229 
L 339.991326 -93.883963 
L 340.511032 -94.622545 
L 341.030738 -95.37 
L 341.550444 -96.126352 
L 342.070149 -96.891624 
L 342.589855 -97.665837 
L 343.109561 -98.449008 
L 343.629267 -99.241154 
L 344.148973 -100.04229 
L 344.668678 -100.852427 
L 345.188384 -101.671577 
L 345.70809 -102.499748 
L 346.227796 -103.336944 
L 346.747502 -104.183172 
L 347.267208 -105.038431 
L 347.786913 -105.902721 
L 348.306619 -106.77604 
L 348.826325 -107.658382 
L 349.346031 -108.549738 
L 349.865737 -109.4501 
L 350.385442 -110.359455 
L 350.905148 -111.277787 
L 351.424854 -112.205079 
L 351.94456 -113.14131 
L 352.464266 -114.086459 
L 352.983971 -115.0405 
L 353.503677 -116.003404 
L 354.023383 -116.975141 
L 354.543089 -117.955678 
L 355.062795 -118.944979 
L 355.582501 -119.943005 
L 356.102206 -120.949715 
L 356.621912 -121.965063 
L 357.141618 -122.989002 
L 357.661324 -124.021483 
L 358.18103 -125.062452 
L 358.700735 -126.111854 
L 359.220441 -127.16963 
L 359.740147 -128.235717 
L 360.259853 -129.31005 
L 360.779559 -130.392563 
L 361.299265 -131.483184 
L 361.81897 -132.58184 
L 362.338676 -133.688453 
L 362.858382 -134.802943 
L 363.378088 -135.925228 
L 363.897794 -137.055221 
L 364.417499 -138.192832 
L 364.937205 -139.337971 
L 365.456911 -140.49054 
L 365.976617 -141.650442 
L 366.496323 -142.817575 
L 367.016029 -143.991833 
L 367.535734 -145.173108 
L 368.05544 -146.361291 
L 368.05544 -50.70339 
L 368.05544 -50.70339 
L 367.535734 -50.70339 
L 367.016029 -50.70339 
L 366.496323 -50.70339 
L 365.976617 -50.70339 
L 365.456911 -50.70339 
L 364.937205 -50.70339 
L 364.417499 -50.70339 
L 363.897794 -50.70339 
L 363.378088 -50.70339 
L 362.858382 -50.70339 
L 362.338676 -50.70339 
L 361.81897 -50.70339 
L 361.299265 -50.70339 
L 360.779559 -50.70339 
L 360.259853 -50.70339 
L 359.740147 -50.70339 
L 359.220441 -50.70339 
L 358.700735 -50.70339 
L 358.18103 -50.70339 
L 357.661324 -50.70339 
L 357.141618 -50.70339 
L 356.621912 -50.70339 
L 356.102206 -50.70339 
L 355.582501 -50.70339 
L 355.062795 -50.70339 
L 354.543089 -50.70339 
L 354.023383 -50.70339 
L 353.503677 -50.70339 
L 352.983971 -50.70339 
L 352.464266 -50.70339 
L 351.94456 -50.70339 
L 351.424854 -50.70339 
L 350.905148 -50.70339 
L 350.385442 -50.70339 
L 349.865737 -50.70339 
L 349.346031 -50.70339 
L 348.826325 -50.70339 
L 348.306619 -50.70339 
L 347.786913 -50.70339 
L 347.267208 -50.70339 
L 346.747502 -50.70339 
L 346.227796 -50.70339 
L 345.70809 -50.70339 
L 345.188384 -50.70339 
L 344.668678 -50.70339 
L 344.148973 -50.70339 
L 343.629267 -50.70339 
L 343.109561 -50.70339 
L 342.589855 -50.70339 
L 342.070149 -50.70339 
L 341.550444 -50.70339 
L 341.030738 -50.70339 
L 340.511032 -50.70339 
L 339.991326 -50.70339 
L 339.47162 -50.70339 
L 338.951914 -50.70339 
L 338.432209 -50.70339 
L 337.912503 -50.70339 
L 337.392797 -50.70339 
L 336.873091 -50.70339 
L 336.353385 -50.70339 
L 335.83368 -50.70339 
L 335.313974 -50.70339 
L 334.794268 -50.70339 
L 334.274562 -50.70339 
L 333.754856 -50.70339 
L 333.235151 -50.70339 
L 332.715445 -50.70339 
L 332.195739 -50.70339 
L 331.676033 -50.70339 
L 331.156327 -50.70339 
L 330.636621 -50.70339 
L 330.116916 -50.70339 
L 329.59721 -50.70339 
L 329.077504 -50.70339 
L 328.557798 -50.70339 
L 328.038092 -50.70339 
L 327.518387 -50.70339 
L 326.998681 -50.70339 
L 326.478975 -50.70339 
L 325.959269 -50.70339 
L 325.439563 -50.70339 
L 324.919857 -50.70339 
L 324.400152 -50.70339 
L 323.880446 -50.70339 
L 323.36074 -50.70339 
L 322.841034 -50.70339 
L 322.321328 -50.70339 
L 321.801623 -50.70339 
L 321.281917 -50.70339 
L 320.762211 -50.70339 
L 320.242505 -50.70339 
L 319.722799 -50.70339 
L 319.203093 -50.70339 
L 318.683388 -50.70339 
L 318.163682 -50.70339 
L 317.643976 -50.70339 
L 317.12427 -50.70339 
L 316.604564 -50.70339 
L 316.084859 -50.70339 
L 315.565153 -50.70339 
L 315.045447 -50.70339 
L 314.525741 -50.70339 
L 314.006035 -50.70339 
L 313.48633 -50.70339 
L 312.966624 -50.70339 
L 312.446918 -50.70339 
L 311.927212 -50.70339 
L 311.407506 -50.70339 
L 310.8878 -50.70339 
L 310.368095 -50.70339 
L 309.848389 -50.70339 
L 309.328683 -50.70339 
L 308.808977 -50.70339 
L 308.289271 -50.70339 
L 307.769566 -50.70339 
L 307.24986 -50.70339 
L 306.730154 -50.70339 
L 306.210448 -50.70339 
L 305.690742 -50.70339 
L 305.171036 -50.70339 
L 304.651331 -50.70339 
L 304.131625 -50.70339 
L 303.611919 -50.70339 
L 303.092213 -50.70339 
L 302.572507 -50.70339 
L 302.052802 -50.70339 
L 301.533096 -50.70339 
L 301.01339 -50.70339 
L 300.493684 -50.70339 
L 299.973978 -50.70339 
L 299.454272 -50.70339 
L 298.934567 -50.70339 
L 298.414861 -50.70339 
L 297.895155 -50.70339 
L 297.375449 -50.70339 
L 296.855743 -50.70339 
L 296.336038 -50.70339 
L 295.816332 -50.70339 
L 295.296626 -50.70339 
L 294.77692 -50.70339 
L 294.257214 -50.70339 
L 293.737509 -50.70339 
L 293.217803 -50.70339 
L 292.698097 -50.70339 
L 292.178391 -50.70339 
L 291.658685 -50.70339 
L 291.138979 -50.70339 
L 290.619274 -50.70339 
L 290.099568 -50.70339 
L 289.579862 -50.70339 
L 289.060156 -50.70339 
L 288.54045 -50.70339 
L 288.020745 -50.70339 
L 287.501039 -50.70339 
L 286.981333 -50.70339 
L 286.461627 -50.70339 
L 285.941921 -50.70339 
L 285.422215 -50.70339 
L 284.90251 -50.70339 
L 284.382804 -50.70339 
L 283.863098 -50.70339 
L 283.343392 -50.70339 
L 282.823686 -50.70339 
L 282.303981 -50.70339 
L 281.784275 -50.70339 
L 281.264569 -50.70339 
L 280.744863 -50.70339 
L 280.225157 -50.70339 
L 279.705452 -50.70339 
L 279.185746 -50.70339 
L 278.66604 -50.70339 
L 278.146334 -50.70339 
L 277.626628 -50.70339 
L 277.106922 -50.70339 
L 276.587217 -50.70339 
L 276.067511 -50.70339 
L 275.547805 -50.70339 
L 275.028099 -50.70339 
L 274.508393 -50.70339 
L 273.988688 -50.70339 
L 273.468982 -50.70339 
L 272.949276 -50.70339 
L 272.42957 -50.70339 
L 271.909864 -50.70339 
L 271.390158 -50.70339 
L 270.870453 -50.70339 
L 270.350747 -50.70339 
L 269.831041 -50.70339 
L 269.311335 -50.70339 
L 268.791629 -50.70339 
L 268.271924 -50.70339 
L 267.752218 -50.70339 
L 267.232512 -50.70339 
L 266.712806 -50.70339 
L 266.1931 -50.70339 
L 265.673394 -50.70339 
L 265.153689 -50.70339 
L 264.633983 -50.70339 
L 264.114277 -50.70339 
L 263.594571 -50.70339 
L 263.074865 -50.70339 
L 262.55516 -50.70339 
L 262.035454 -50.70339 
L 261.515748 -50.70339 
L 260.996042 -50.70339 
L 260.476336 -50.70339 
L 259.956631 -50.70339 
L 259.436925 -50.70339 
L 258.917219 -50.70339 
L 258.397513 -50.70339 
L 257.877807 -50.70339 
L 257.358101 -50.70339 
L 256.838396 -50.70339 
L 256.31869 -50.70339 
L 255.798984 -50.70339 
L 255.279278 -50.70339 
L 254.759572 -50.70339 
L 254.239867 -50.70339 
L 253.720161 -50.70339 
L 253.200455 -50.70339 
L 252.680749 -50.70339 
L 252.161043 -50.70339 
L 251.641337 -50.70339 
L 251.121632 -50.70339 
L 250.601926 -50.70339 
L 250.08222 -50.70339 
L 249.562514 -50.70339 
L 249.042808 -50.70339 
L 248.523103 -50.70339 
L 248.003397 -50.70339 
L 247.483691 -50.70339 
L 246.963985 -50.70339 
L 246.444279 -50.70339 
L 245.924574 -50.70339 
L 245.404868 -50.70339 
L 244.885162 -50.70339 
L 244.365456 -50.70339 
L 243.84575 -50.70339 
L 243.326044 -50.70339 
L 242.806339 -50.70339 
L 242.286633 -50.70339 
L 241.766927 -50.70339 
L 241.247221 -50.70339 
L 240.727515 -50.70339 
L 240.20781 -50.70339 
L 239.688104 -50.70339 
L 239.168398 -50.70339 
L 238.648692 -50.70339 
L 238.128986 -50.70339 
L 237.60928 -50.70339 
L 237.089575 -50.70339 
L 236.569869 -50.70339 
L 236.050163 -50.70339 
L 235.530457 -50.70339 
L 235.010751 -50.70339 
L 234.491046 -50.70339 
L 233.97134 -50.70339 
L 233.451634 -50.70339 
L 232.931928 -50.70339 
L 232.412222 -50.70339 
L 231.892516 -50.70339 
L 231.372811 -50.70339 
L 230.853105 -50.70339 
L 230.333399 -50.70339 
L 229.813693 -50.70339 
L 229.293987 -50.70339 
L 228.774282 -50.70339 
L 228.254576 -50.70339 
L 227.73487 -50.70339 
L 227.215164 -50.70339 
L 226.695458 -50.70339 
L 226.175753 -50.70339 
L 225.656047 -50.70339 
L 225.136341 -50.70339 
L 224.616635 -50.70339 
L 224.096929 -50.70339 
L 223.577223 -50.70339 
L 223.057518 -50.70339 
L 222.537812 -50.70339 
L 222.018106 -50.70339 
L 221.4984 -50.70339 
L 220.978694 -50.70339 
L 220.458989 -50.70339 
L 219.939283 -50.70339 
L 219.419577 -50.70339 
L 218.899871 -50.70339 
L 218.380165 -50.70339 
L 217.860459 -50.70339 
L 217.340754 -50.70339 
L 216.821048 -50.70339 
L 216.301342 -50.70339 
L 215.781636 -50.70339 
L 215.26193 -50.70339 
L 214.742225 -50.70339 
L 214.222519 -50.70339 
L 213.702813 -50.70339 
L 213.183107 -50.70339 
L 212.663401 -50.70339 
L 212.143696 -50.70339 
L 211.62399 -50.70339 
L 211.104284 -50.70339 
L 210.584578 -50.70339 
L 210.064872 -50.70339 
L 209.545166 -50.70339 
L 209.025461 -50.70339 
L 208.505755 -50.70339 
L 207.986049 -50.70339 
L 207.466343 -50.70339 
L 206.946637 -50.70339 
L 206.426932 -50.70339 
L 205.907226 -50.70339 
L 205.38752 -50.70339 
L 204.867814 -50.70339 
L 204.348108 -50.70339 
L 203.828402 -50.70339 
L 203.308697 -50.70339 
L 202.788991 -50.70339 
L 202.269285 -50.70339 
L 201.749579 -50.70339 
L 201.229873 -50.70339 
L 200.710168 -50.70339 
L 200.190462 -50.70339 
L 199.670756 -50.70339 
L 199.15105 -50.70339 
L 198.631344 -50.70339 
L 198.111638 -50.70339 
L 197.591933 -50.70339 
L 197.072227 -50.70339 
L 196.552521 -50.70339 
L 196.032815 -50.70339 
L 195.513109 -50.70339 
L 194.993404 -50.70339 
L 194.473698 -50.70339 
L 193.953992 -50.70339 
L 193.434286 -50.70339 
L 192.91458 -50.70339 
L 192.394875 -50.70339 
L 191.875169 -50.70339 
L 191.355463 -50.70339 
L 190.835757 -50.70339 
L 190.316051 -50.70339 
L 189.796345 -50.70339 
L 189.27664 -50.70339 
L 188.756934 -50.70339 
L 188.237228 -50.70339 
L 187.717522 -50.70339 
L 187.197816 -50.70339 
L 186.678111 -50.70339 
L 186.158405 -50.70339 
L 185.638699 -50.70339 
L 185.118993 -50.70339 
L 184.599287 -50.70339 
L 184.079581 -50.70339 
L 183.559876 -50.70339 
L 183.04017 -50.70339 
L 182.520464 -50.70339 
L 182.000758 -50.70339 
L 181.481052 -50.70339 
L 180.961347 -50.70339 
L 180.441641 -50.70339 
L 179.921935 -50.70339 
L 179.402229 -50.70339 
L 178.882523 -50.70339 
L 178.362817 -50.70339 
L 177.843112 -50.70339 
L 177.323406 -50.70339 
L 176.8037 -50.70339 
L 176.283994 -50.70339 
L 175.764288 -50.70339 
L 175.244583 -50.70339 
L 174.724877 -50.70339 
L 174.205171 -50.70339 
L 173.685465 -50.70339 
L 173.165759 -50.70339 
L 172.646054 -50.70339 
L 172.126348 -50.70339 
L 171.606642 -50.70339 
L 171.086936 -50.70339 
L 170.56723 -50.70339 
L 170.047524 -50.70339 
L 169.527819 -50.70339 
L 169.008113 -50.70339 
L 168.488407 -50.70339 
L 167.968701 -50.70339 
L 167.448995 -50.70339 
L 166.92929 -50.70339 
L 166.409584 -50.70339 
L 165.889878 -50.70339 
L 165.370172 -50.70339 
L 164.850466 -50.70339 
L 164.33076 -50.70339 
L 163.811055 -50.70339 
L 163.291349 -50.70339 
L 162.771643 -50.70339 
L 162.251937 -50.70339 
L 161.732231 -50.70339 
L 161.212526 -50.70339 
L 160.69282 -50.70339 
L 160.173114 -50.70339 
L 159.653408 -50.70339 
L 159.133702 -50.70339 
L 158.613997 -50.70339 
L 158.094291 -50.70339 
L 157.574585 -50.70339 
L 157.054879 -50.70339 
L 156.535173 -50.70339 
L 156.015467 -50.70339 
L 155.495762 -50.70339 
L 154.976056 -50.70339 
L 154.45635 -50.70339 
L 153.936644 -50.70339 
L 153.416938 -50.70339 
L 152.897233 -50.70339 
L 152.377527 -50.70339 
L 151.857821 -50.70339 
L 151.338115 -50.70339 
L 150.818409 -50.70339 
L 150.298703 -50.70339 
L 149.778998 -50.70339 
L 149.259292 -50.70339 
L 148.739586 -50.70339 
L 148.21988 -50.70339 
L 147.700174 -50.70339 
L 147.180469 -50.70339 
L 146.660763 -50.70339 
L 146.141057 -50.70339 
L 145.621351 -50.70339 
L 145.101645 -50.70339 
L 144.581939 -50.70339 
L 144.062234 -50.70339 
L 143.542528 -50.70339 
L 143.022822 -50.70339 
L 142.503116 -50.70339 
L 141.98341 -50.70339 
L 141.463705 -50.70339 
L 140.943999 -50.70339 
L 140.424293 -50.70339 
L 139.904587 -50.70339 
L 139.384881 -50.70339 
L 138.865176 -50.70339 
L 138.34547 -50.70339 
L 137.825764 -50.70339 
L 137.306058 -50.70339 
L 136.786352 -50.70339 
L 136.266646 -50.70339 
L 135.746941 -50.70339 
L 135.227235 -50.70339 
L 134.707529 -50.70339 
L 134.187823 -50.70339 
L 133.668117 -50.70339 
L 133.148412 -50.70339 
L 132.628706 -50.70339 
L 132.109 -50.70339 
L 131.589294 -50.70339 
L 131.069588 -50.70339 
L 130.549882 -50.70339 
L 130.030177 -50.70339 
L 129.510471 -50.70339 
L 128.990765 -50.70339 
L 128.471059 -50.70339 
L 127.951353 -50.70339 
L 127.431648 -50.70339 
L 126.911942 -50.70339 
L 126.392236 -50.70339 
L 125.87253 -50.70339 
L 125.352824 -50.70339 
L 124.833119 -50.70339 
L 124.313413 -50.70339 
L 123.793707 -50.70339 
L 123.274001 -50.70339 
L 122.754295 -50.70339 
L 122.234589 -50.70339 
L 121.714884 -50.70339 
L 121.195178 -50.70339 
L 120.675472 -50.70339 
L 120.155766 -50.70339 
L 119.63606 -50.70339 
L 119.116355 -50.70339 
L 118.596649 -50.70339 
L 118.076943 -50.70339 
L 117.557237 -50.70339 
L 117.037531 -50.70339 
L 116.517825 -50.70339 
L 115.99812 -50.70339 
L 115.478414 -50.70339 
L 114.958708 -50.70339 
L 114.439002 -50.70339 
L 113.919296 -50.70339 
L 113.399591 -50.70339 
L 112.879885 -50.70339 
L 112.360179 -50.70339 
L 111.840473 -50.70339 
L 111.320767 -50.70339 
L 110.801061 -50.70339 
L 110.281356 -50.70339 
L 109.76165 -50.70339 
L 109.241944 -50.70339 
L 108.722238 -50.70339 
L 108.202532 -50.70339 
L 107.682827 -50.70339 
L 107.163121 -50.70339 
L 106.643415 -50.70339 
L 106.123709 -50.70339 
L 105.604003 -50.70339 
L 105.084298 -50.70339 
L 104.564592 -50.70339 
L 104.044886 -50.70339 
L 103.52518 -50.70339 
L 103.005474 -50.70339 
L 102.485768 -50.70339 
L 101.966063 -50.70339 
L 101.446357 -50.70339 
L 100.926651 -50.70339 
L 100.406945 -50.70339 
L 99.887239 -50.70339 
L 99.367534 -50.70339 
L 98.847828 -50.70339 
L 98.328122 -50.70339 
L 97.808416 -50.70339 
L 97.28871 -50.70339 
L 96.769004 -50.70339 
L 96.249299 -50.70339 
L 95.729593 -50.70339 
L 95.209887 -50.70339 
L 94.690181 -50.70339 
L 94.170475 -50.70339 
L 93.65077 -50.70339 
L 93.131064 -50.70339 
L 92.611358 -50.70339 
L 92.091652 -50.70339 
L 91.571946 -50.70339 
L 91.052241 -50.70339 
L 90.532535 -50.70339 
L 90.012829 -50.70339 
L 89.493123 -50.70339 
L 88.973417 -50.70339 
L 88.453711 -50.70339 
L 87.934006 -50.70339 
L 87.4143 -50.70339 
L 86.894594 -50.70339 
L 86.374888 -50.70339 
L 85.855182 -50.70339 
L 85.335477 -50.70339 
L 84.815771 -50.70339 
L 84.296065 -50.70339 
L 83.776359 -50.70339 
L 83.256653 -50.70339 
L 82.736947 -50.70339 
L 82.217242 -50.70339 
L 81.697536 -50.70339 
L 81.17783 -50.70339 
L 80.658124 -50.70339 
L 80.138418 -50.70339 
L 79.618713 -50.70339 
L 79.099007 -50.70339 
L 78.579301 -50.70339 
L 78.059595 -50.70339 
L 77.539889 -50.70339 
L 77.020183 -50.70339 
L 76.500478 -50.70339 
L 75.980772 -50.70339 
L 75.461066 -50.70339 
L 74.94136 -50.70339 
L 74.421654 -50.70339 
L 73.901949 -50.70339 
L 73.382243 -50.70339 
L 72.862537 -50.70339 
L 72.342831 -50.70339 
L 71.823125 -50.70339 
L 71.30342 -50.70339 
L 70.783714 -50.70339 
L 70.264008 -50.70339 
L 69.744302 -50.70339 
L 69.224596 -50.70339 
L 68.70489 -50.70339 
L 68.185185 -50.70339 
L 67.665479 -50.70339 
L 67.145773 -50.70339 
L 66.626067 -50.70339 
L 66.106361 -50.70339 
L 65.586656 -50.70339 
L 65.06695 -50.70339 
L 64.547244 -50.70339 
L 64.027538 -50.70339 
L 63.507832 -50.70339 
L 62.988126 -50.70339 
L 62.468421 -50.70339 
L 61.948715 -50.70339 
L 61.429009 -50.70339 
L 60.909303 -50.70339 
L 60.389597 -50.70339 
L 59.869892 -50.70339 
L 59.350186 -50.70339 
L 58.83048 -50.70339 
L 58.310774 -50.70339 
L 57.791068 -50.70339 
L 57.271362 -50.70339 
L 56.751657 -50.70339 
L 56.231951 -50.70339 
L 55.712245 -50.70339 
L 55.192539 -50.70339 
L 54.672833 -50.70339 
L 54.153128 -50.70339 
L 53.633422 -50.70339 
L 53.113716 -50.70339 
L 52.59401 -50.70339 
L 52.074304 -50.70339 
L 51.554599 -50.70339 
L 51.034893 -50.70339 
L 50.515187 -50.70339 
L 49.995481 -50.70339 
L 49.475775 -50.70339 
L 48.956069 -50.70339 
L 48.436364 -50.70339 
z
" style="stroke: #eb6834; stroke-opacity: 0.45"/>
    </defs>
    <g clip-path="url(#p501a6c2b3b)">
     <use xlink:href="#m814a72b0a2" x="0" y="331.2" style="fill: #eb6834; fill-opacity: 0.45; stroke: #eb6834; stroke-opacity: 0.45"/>
    </g>
   </g>
   <g id="matplotlib.axis_1">
    <g id="xtick_1">
     <g id="line2d_1">
      <path d="M 48.436364 292.52 
L 48.436364 28.005414 
" clip-path="url(#p501a6c2b3b)" style="fill: none; stroke: #e4e3df; stroke-width: 0.8; stroke-linecap: square"/>
     </g>
     <g id="line2d_2">
      <defs>
       <path id="m32664df465" d="M 0 0 
L 0 3.5 
" style="stroke: #52514e; stroke-width: 0.8"/>
      </defs>
      <g>
       <use xlink:href="#m32664df465" x="48.436364" y="292.52" style="fill: #52514e; stroke: #52514e; stroke-width: 0.8"/>
      </g>
     </g>
     <g id="text_1">
      <!-- −4 -->
      <g style="fill: #52514e" transform="translate(36.642614 311.6775) scale(0.16 -0.16)">
       <defs>
        <path id="DejaVuSans-2212" d="M 678 2272 
L 4684 2272 
L 4684 1741 
L 678 1741 
L 678 2272 
z
" transform="scale(0.015625)"/>
        <path id="DejaVuSans-34" d="M 2419 4116 
L 825 1625 
L 2419 1625 
L 2419 4116 
z
M 2253 4666 
L 3047 4666 
L 3047 1625 
L 3713 1625 
L 3713 1100 
L 3047 1100 
L 3047 0 
L 2419 0 
L 2419 1100 
L 313 1100 
L 313 1709 
L 2253 4666 
z
" transform="scale(0.015625)"/>
       </defs>
       <use xlink:href="#DejaVuSans-2212"/>
       <use xlink:href="#DejaVuSans-34" x="83.789062"/>
      </g>
     </g>
    </g>
    <g id="xtick_2">
     <g id="line2d_3">
      <path d="M 161.732231 292.52 
L 161.732231 28.005414 
" clip-path="url(#p501a6c2b3b)" style="fill: none; stroke: #e4e3df; stroke-width: 0.8; stroke-linecap: square"/>
     </g>
     <g id="line2d_4">
      <g>
       <use xlink:href="#m32664df465" x="161.732231" y="292.52" style="fill: #52514e; stroke: #52514e; stroke-width: 0.8"/>
      </g>
     </g>
     <g id="text_2">
      <!-- −2 -->
      <g style="fill: #52514e" transform="translate(149.938481 311.6775) scale(0.16 -0.16)">
       <defs>
        <path id="DejaVuSans-32" d="M 1228 531 
L 3431 531 
L 3431 0 
L 469 0 
L 469 531 
Q 828 903 1448 1529 
Q 2069 2156 2228 2338 
Q 2531 2678 2651 2914 
Q 2772 3150 2772 3378 
Q 2772 3750 2511 3984 
Q 2250 4219 1831 4219 
Q 1534 4219 1204 4116 
Q 875 4013 500 3803 
L 500 4441 
Q 881 4594 1212 4672 
Q 1544 4750 1819 4750 
Q 2544 4750 2975 4387 
Q 3406 4025 3406 3419 
Q 3406 3131 3298 2873 
Q 3191 2616 2906 2266 
Q 2828 2175 2409 1742 
Q 1991 1309 1228 531 
z
" transform="scale(0.015625)"/>
       </defs>
       <use xlink:href="#DejaVuSans-2212"/>
       <use xlink:href="#DejaVuSans-32" x="83.789062"/>
      </g>
     </g>
    </g>
    <g id="xtick_3">
     <g id="line2d_5">
      <path d="M 275.028099 292.52 
L 275.028099 28.005414 
" clip-path="url(#p501a6c2b3b)" style="fill: none; stroke: #e4e3df; stroke-width: 0.8; stroke-linecap: square"/>
     </g>
     <g id="line2d_6">
      <g>
       <use xlink:href="#m32664df465" x="275.028099" y="292.52" style="fill: #52514e; stroke: #52514e; stroke-width: 0.8"/>
      </g>
     </g>
     <g id="text_3">
      <!-- 0 -->
      <g style="fill: #52514e" transform="translate(269.938099 311.6775) scale(0.16 -0.16)">
       <defs>
        <path id="DejaVuSans-30" d="M 2034 4250 
Q 1547 4250 1301 3770 
Q 1056 3291 1056 2328 
Q 1056 1369 1301 889 
Q 1547 409 2034 409 
Q 2525 409 2770 889 
Q 3016 1369 3016 2328 
Q 3016 3291 2770 3770 
Q 2525 4250 2034 4250 
z
M 2034 4750 
Q 2819 4750 3233 4129 
Q 3647 3509 3647 2328 
Q 3647 1150 3233 529 
Q 2819 -91 2034 -91 
Q 1250 -91 836 529 
Q 422 1150 422 2328 
Q 422 3509 836 4129 
Q 1250 4750 2034 4750 
z
" transform="scale(0.015625)"/>
       </defs>
       <use xlink:href="#DejaVuSans-30"/>
      </g>
     </g>
    </g>
    <g id="xtick_4">
     <g id="line2d_7">
      <path d="M 388.323967 292.52 
L 388.323967 28.005414 
" clip-path="url(#p501a6c2b3b)" style="fill: none; stroke: #e4e3df; stroke-width: 0.8; stroke-linecap: square"/>
     </g>
     <g id="line2d_8">
      <g>
       <use xlink:href="#m32664df465" x="388.323967" y="292.52" style="fill: #52514e; stroke: #52514e; stroke-width: 0.8"/>
      </g>
     </g>
     <g id="text_4">
      <!-- 2 -->
      <g style="fill: #52514e" transform="translate(383.233967 311.6775) scale(0.16 -0.16)">
       <use xlink:href="#DejaVuSans-32"/>
      </g>
     </g>
    </g>
    <g id="xtick_5">
     <g id="line2d_9">
      <path d="M 501.619835 292.52 
L 501.619835 28.005414 
" clip-path="url(#p501a6c2b3b)" style="fill: none; stroke: #e4e3df; stroke-width: 0.8; stroke-linecap: square"/>
     </g>
     <g id="line2d_10">
      <g>
       <use xlink:href="#m32664df465" x="501.619835" y="292.52" style="fill: #52514e; stroke: #52514e; stroke-width: 0.8"/>
      </g>
     </g>
     <g id="text_5">
      <!-- 4 -->
      <g style="fill: #52514e" transform="translate(496.529835 311.6775) scale(0.16 -0.16)">
       <use xlink:href="#DejaVuSans-34"/>
      </g>
     </g>
    </g>
    <g id="xtick_6">
     <g id="line2d_11">
      <path d="M 614.915702 292.52 
L 614.915702 28.005414 
" clip-path="url(#p501a6c2b3b)" style="fill: none; stroke: #e4e3df; stroke-width: 0.8; stroke-linecap: square"/>
     </g>
     <g id="line2d_12">
      <g>
       <use xlink:href="#m32664df465" x="614.915702" y="292.52" style="fill: #52514e; stroke: #52514e; stroke-width: 0.8"/>
      </g>
     </g>
     <g id="text_6">
      <!-- 6 -->
      <g style="fill: #52514e" transform="translate(609.825702 311.6775) scale(0.16 -0.16)">
       <defs>
        <path id="DejaVuSans-36" d="M 2113 2584 
Q 1688 2584 1439 2293 
Q 1191 2003 1191 1497 
Q 1191 994 1439 701 
Q 1688 409 2113 409 
Q 2538 409 2786 701 
Q 3034 994 3034 1497 
Q 3034 2003 2786 2293 
Q 2538 2584 2113 2584 
z
M 3366 4563 
L 3366 3988 
Q 3128 4100 2886 4159 
Q 2644 4219 2406 4219 
Q 1781 4219 1451 3797 
Q 1122 3375 1075 2522 
Q 1259 2794 1537 2939 
Q 1816 3084 2150 3084 
Q 2853 3084 3261 2657 
Q 3669 2231 3669 1497 
Q 3669 778 3244 343 
Q 2819 -91 2113 -91 
Q 1303 -91 875 529 
Q 447 1150 447 2328 
Q 447 3434 972 4092 
Q 1497 4750 2381 4750 
Q 2619 4750 2861 4703 
Q 3103 4656 3366 4563 
z
" transform="scale(0.015625)"/>
       </defs>
       <use xlink:href="#DejaVuSans-36"/>
      </g>
     </g>
    </g>
   </g>
   <g id="matplotlib.axis_2"/>
   <g id="line2d_13">
    <path d="M 48.436364 280.415942 
L 68.185185 280.190462 
L 80.138418 279.849653 
L 89.493123 279.370214 
L 97.28871 278.745459 
L 103.52518 278.037895 
L 109.241944 277.176239 
L 114.439002 276.171819 
L 119.116355 275.049821 
L 123.274001 273.848477 
L 127.431648 272.425757 
L 131.589294 270.751209 
L 135.227235 269.053979 
L 138.865176 267.116461 
L 142.503116 264.915268 
L 146.141057 262.426631 
L 149.778998 259.626762 
L 152.897233 256.961406 
L 156.015467 254.035947 
L 159.133702 250.836857 
L 162.251937 247.351581 
L 165.370172 243.568817 
L 168.488407 239.478809 
L 172.126348 234.308376 
L 175.764288 228.700252 
L 179.402229 222.650262 
L 183.04017 216.1595 
L 186.678111 209.234937 
L 190.835757 200.807437 
L 194.993404 191.862029 
L 199.670756 181.233885 
L 204.867814 168.820219 
L 211.104284 153.279216 
L 222.018106 125.292004 
L 229.293987 106.908081 
L 234.491046 94.347659 
L 238.648692 84.837361 
L 242.286633 77.019234 
L 245.924574 69.759634 
L 249.042808 64.043007 
L 251.641337 59.672585 
L 254.239867 55.68746 
L 256.838396 52.111492 
L 259.436925 48.966341 
L 261.515748 46.773428 
L 263.594571 44.877264 
L 265.673394 43.285382 
L 267.752218 42.004136 
L 269.831041 41.038662 
L 271.390158 40.524166 
L 272.949276 40.190667 
L 274.508393 40.038924 
L 276.067511 40.06928 
L 277.626628 40.281667 
L 279.185746 40.675603 
L 280.744863 41.250193 
L 282.823686 42.295023 
L 284.90251 43.654458 
L 286.981333 45.323053 
L 289.060156 47.294155 
L 291.138979 49.559945 
L 293.217803 52.111492 
L 295.816332 55.68746 
L 298.414861 59.672585 
L 301.01339 64.043007 
L 304.131625 69.759634 
L 307.24986 75.946021 
L 310.8878 83.689464 
L 315.045447 93.129437 
L 319.722799 104.347129 
L 325.439563 118.655045 
L 346.747502 172.603768 
L 351.94456 184.838709 
L 356.621912 195.274772 
L 360.779559 204.03037 
L 364.937205 212.255021 
L 368.575146 218.994921 
L 372.213087 225.297279 
L 375.851027 231.15771 
L 379.488968 236.577455 
L 383.126909 241.56276 
L 386.764849 246.12423 
L 389.883084 249.707483 
L 393.001319 253.00063 
L 396.119554 256.015839 
L 399.237789 258.766343 
L 402.87573 261.659461 
L 406.51367 264.234603 
L 410.151611 266.51549 
L 413.789552 268.525934 
L 417.427493 270.289466 
L 421.065433 271.829013 
L 425.22308 273.342489 
L 429.380726 274.623415 
L 434.058079 275.82264 
L 439.255137 276.899084 
L 444.452195 277.750825 
L 450.688665 278.533084 
L 457.44484 279.149724 
L 465.240428 279.640039 
L 475.114838 280.026747 
L 488.107484 280.293037 
L 507.856304 280.444989 
L 551.511593 280.494994 
L 671.563636 280.49661 
L 671.563636 280.49661 
" clip-path="url(#p501a6c2b3b)" style="fill: none; stroke: #2a78d6; stroke-width: 2.2; stroke-linecap: square"/>
   </g>
   <g id="line2d_14">
    <path d="M 48.436364 280.49661 
L 222.537812 280.388707 
L 240.20781 280.1468 
L 251.641337 279.785669 
L 260.476336 279.300649 
L 267.752218 278.694394 
L 273.988688 277.968752 
L 279.705452 277.086025 
L 284.90251 276.058051 
L 289.579862 274.910771 
L 293.737509 273.683347 
L 297.895155 272.230857 
L 302.052802 270.522589 
L 305.690742 268.792442 
L 309.328683 266.8187 
L 312.966624 264.577904 
L 316.604564 262.046257 
L 319.722799 259.626762 
L 322.841034 256.961406 
L 325.959269 254.035947 
L 329.077504 250.836857 
L 332.195739 247.351581 
L 335.313974 243.568817 
L 338.432209 239.478809 
L 342.070149 234.308376 
L 345.70809 228.700252 
L 349.346031 222.650262 
L 352.983971 216.1595 
L 356.621912 209.234937 
L 360.779559 200.807437 
L 364.937205 191.862029 
L 369.614558 181.233885 
L 374.811616 168.820219 
L 381.048086 153.279216 
L 391.961908 125.292004 
L 399.237789 106.908081 
L 404.434847 94.347659 
L 408.592494 84.837361 
L 412.230434 77.019234 
L 415.868375 69.759634 
L 418.98661 64.043007 
L 421.585139 59.672585 
L 424.183668 55.68746 
L 426.782197 52.111492 
L 429.380726 48.966341 
L 431.45955 46.773428 
L 433.538373 44.877264 
L 435.617196 43.285382 
L 437.696019 42.004136 
L 439.774843 41.038662 
L 441.33396 40.524166 
L 442.893078 40.190667 
L 444.452195 40.038924 
L 446.011312 40.06928 
L 447.57043 40.281667 
L 449.129547 40.675603 
L 450.688665 41.250193 
L 452.767488 42.295023 
L 454.846311 43.654458 
L 456.925135 45.323053 
L 459.003958 47.294155 
L 461.082781 49.559945 
L 463.161604 52.111492 
L 465.760133 55.68746 
L 468.358663 59.672585 
L 470.957192 64.043007 
L 474.075426 69.759634 
L 477.193661 75.946021 
L 480.831602 83.689464 
L 484.989249 93.129437 
L 489.666601 104.347129 
L 495.383365 118.655045 
L 516.691303 172.603768 
L 521.888362 184.838709 
L 526.565714 195.274772 
L 530.72336 204.03037 
L 534.881007 212.255021 
L 538.518948 218.994921 
L 542.156888 225.297279 
L 545.794829 231.15771 
L 549.43277 236.577455 
L 553.07071 241.56276 
L 556.708651 246.12423 
L 559.826886 249.707483 
L 562.945121 253.00063 
L 566.063356 256.015839 
L 569.181591 258.766343 
L 572.819531 261.659461 
L 576.457472 264.234603 
L 580.095413 266.51549 
L 583.733354 268.525934 
L 587.371294 270.289466 
L 591.009235 271.829013 
L 595.166881 273.342489 
L 599.324528 274.623415 
L 604.00188 275.82264 
L 609.198939 276.899084 
L 614.395997 277.750825 
L 620.632466 278.533084 
L 627.388642 279.149724 
L 635.184229 279.640039 
L 645.05864 280.026747 
L 658.051285 280.293037 
L 671.563636 280.415942 
L 671.563636 280.415942 
" clip-path="url(#p501a6c2b3b)" style="fill: none; stroke: #eb6834; stroke-width: 2.2; stroke-linecap: square"/>
   </g>
   <g id="line2d_15">
    <path d="M 368.21395 292.52 
L 368.21395 28.005414 
" clip-path="url(#p501a6c2b3b)" style="fill: none; stroke-dasharray: 8.14,3.52; stroke-dashoffset: 0; stroke: #0b0b0b; stroke-width: 2.2"/>
   </g>
   <g id="patch_3">
    <path d="M 17.28 292.52 
L 17.28 28.005414 
" style="fill: none; stroke: #52514e; stroke-width: 0.8; stroke-linejoin: miter; stroke-linecap: square"/>
   </g>
   <g id="patch_4">
    <path d="M 17.28 292.52 
L 702.72 292.52 
" style="fill: none; stroke: #52514e; stroke-width: 0.8; stroke-linejoin: miter; stroke-linecap: square"/>
   </g>
   <g id="text_7">
    <!-- $\alpha$ -->
    <g style="fill: #2a78d6" transform="translate(393.98876 262.413708) scale(0.2 -0.2)">
     <defs>
      <path id="DejaVuSans-Oblique-3b1" d="M 2619 1628 
L 2622 2350 
Q 2625 3088 2069 3091 
Q 1653 3094 1394 2747 
Q 1069 2319 959 1747 
Q 825 1059 994 731 
Q 1169 397 1547 397 
Q 1966 397 2319 1063 
L 2619 1628 
z
M 2166 3578 
Q 3141 3594 3128 2584 
Q 3128 2584 3616 3500 
L 4128 3500 
L 3119 1603 
L 3109 919 
Q 3109 766 3194 638 
Q 3291 488 3391 488 
L 3669 488 
L 3575 0 
L 3228 0 
Q 2934 0 2722 263 
Q 2622 394 2619 669 
Q 2416 334 2066 50 
Q 1900 -81 1453 -78 
Q 722 -72 456 397 
Q 184 884 353 1747 
Q 534 2675 1009 3097 
Q 1544 3569 2166 3578 
z
" transform="scale(0.015625)"/>
     </defs>
     <use xlink:href="#DejaVuSans-Oblique-3b1" transform="translate(0 0.84375)"/>
    </g>
   </g>
   <g id="text_8">
    <!-- $\beta$ -->
    <g style="fill: #eb6834" transform="translate(326.01124 262.413708) scale(0.2 -0.2)">
     <defs>
      <path id="DejaVuSans-Oblique-3b2" d="M 872 216 
L 572 -1331 
L -6 -1331 
L 928 3478 
Q 1206 4903 2538 4903 
Q 3888 4903 3659 3700 
Q 3503 2844 2894 2531 
Q 3713 2250 3553 1416 
Q 3272 -69 1759 -66 
Q 1097 -63 872 216 
z
M 1019 966 
Q 1259 422 1875 425 
Q 2775 425 2966 1406 
Q 3138 2288 1675 2219 
L 1778 2750 
Q 2909 2731 3106 3750 
Q 3241 4438 2509 4434 
Q 1691 4434 1503 3459 
L 1019 966 
z
" transform="scale(0.015625)"/>
     </defs>
     <use xlink:href="#DejaVuSans-Oblique-3b2" transform="translate(0 0.390625)"/>
    </g>
   </g>
   <g id="text_9">
    <!-- prag odluke -->
    <g transform="translate(373.878744 27.335981) scale(0.13 -0.13)">
     <defs>
      <path id="DejaVuSans-70" d="M 1159 525 
L 1159 -1331 
L 581 -1331 
L 581 3500 
L 1159 3500 
L 1159 2969 
Q 1341 3281 1617 3432 
Q 1894 3584 2278 3584 
Q 2916 3584 3314 3078 
Q 3713 2572 3713 1747 
Q 3713 922 3314 415 
Q 2916 -91 2278 -91 
Q 1894 -91 1617 61 
Q 1341 213 1159 525 
z
M 3116 1747 
Q 3116 2381 2855 2742 
Q 2594 3103 2138 3103 
Q 1681 3103 1420 2742 
Q 1159 2381 1159 1747 
Q 1159 1113 1420 752 
Q 1681 391 2138 391 
Q 2594 391 2855 752 
Q 3116 1113 3116 1747 
z
" transform="scale(0.015625)"/>
      <path id="DejaVuSans-72" d="M 2631 2963 
Q 2534 3019 2420 3045 
Q 2306 3072 2169 3072 
Q 1681 3072 1420 2755 
Q 1159 2438 1159 1844 
L 1159 0 
L 581 0 
L 581 3500 
L 1159 3500 
L 1159 2956 
Q 1341 3275 1631 3429 
Q 1922 3584 2338 3584 
Q 2397 3584 2469 3576 
Q 2541 3569 2628 3553 
L 2631 2963 
z
" transform="scale(0.015625)"/>
      <path id="DejaVuSans-61" d="M 2194 1759 
Q 1497 1759 1228 1600 
Q 959 1441 959 1056 
Q 959 750 1161 570 
Q 1363 391 1709 391 
Q 2188 391 2477 730 
Q 2766 1069 2766 1631 
L 2766 1759 
L 2194 1759 
z
M 3341 1997 
L 3341 0 
L 2766 0 
L 2766 531 
Q 2569 213 2275 61 
Q 1981 -91 1556 -91 
Q 1019 -91 701 211 
Q 384 513 384 1019 
Q 384 1609 779 1909 
Q 1175 2209 1959 2209 
L 2766 2209 
L 2766 2266 
Q 2766 2663 2505 2880 
Q 2244 3097 1772 3097 
Q 1472 3097 1187 3025 
Q 903 2953 641 2809 
L 641 3341 
Q 956 3463 1253 3523 
Q 1550 3584 1831 3584 
Q 2591 3584 2966 3190 
Q 3341 2797 3341 1997 
z
" transform="scale(0.015625)"/>
      <path id="DejaVuSans-67" d="M 2906 1791 
Q 2906 2416 2648 2759 
Q 2391 3103 1925 3103 
Q 1463 3103 1205 2759 
Q 947 2416 947 1791 
Q 947 1169 1205 825 
Q 1463 481 1925 481 
Q 2391 481 2648 825 
Q 2906 1169 2906 1791 
z
M 3481 434 
Q 3481 -459 3084 -895 
Q 2688 -1331 1869 -1331 
Q 1566 -1331 1297 -1286 
Q 1028 -1241 775 -1147 
L 775 -588 
Q 1028 -725 1275 -790 
Q 1522 -856 1778 -856 
Q 2344 -856 2625 -561 
Q 2906 -266 2906 331 
L 2906 616 
Q 2728 306 2450 153 
Q 2172 0 1784 0 
Q 1141 0 747 490 
Q 353 981 353 1791 
Q 353 2603 747 3093 
Q 1141 3584 1784 3584 
Q 2172 3584 2450 3431 
Q 2728 3278 2906 2969 
L 2906 3500 
L 3481 3500 
L 3481 434 
z
" transform="scale(0.015625)"/>
      <path id="DejaVuSans-20" transform="scale(0.015625)"/>
      <path id="DejaVuSans-6f" d="M 1959 3097 
Q 1497 3097 1228 2736 
Q 959 2375 959 1747 
Q 959 1119 1226 758 
Q 1494 397 1959 397 
Q 2419 397 2687 759 
Q 2956 1122 2956 1747 
Q 2956 2369 2687 2733 
Q 2419 3097 1959 3097 
z
M 1959 3584 
Q 2709 3584 3137 3096 
Q 3566 2609 3566 1747 
Q 3566 888 3137 398 
Q 2709 -91 1959 -91 
Q 1206 -91 779 398 
Q 353 888 353 1747 
Q 353 2609 779 3096 
Q 1206 3584 1959 3584 
z
" transform="scale(0.015625)"/>
      <path id="DejaVuSans-64" d="M 2906 2969 
L 2906 4863 
L 3481 4863 
L 3481 0 
L 2906 0 
L 2906 525 
Q 2725 213 2448 61 
Q 2172 -91 1784 -91 
Q 1150 -91 751 415 
Q 353 922 353 1747 
Q 353 2572 751 3078 
Q 1150 3584 1784 3584 
Q 2172 3584 2448 3432 
Q 2725 3281 2906 2969 
z
M 947 1747 
Q 947 1113 1208 752 
Q 1469 391 1925 391 
Q 2381 391 2643 752 
Q 2906 1113 2906 1747 
Q 2906 2381 2643 2742 
Q 2381 3103 1925 3103 
Q 1469 3103 1208 2742 
Q 947 2381 947 1747 
z
" transform="scale(0.015625)"/>
      <path id="DejaVuSans-6c" d="M 603 4863 
L 1178 4863 
L 1178 0 
L 603 0 
L 603 4863 
z
" transform="scale(0.015625)"/>
      <path id="DejaVuSans-75" d="M 544 1381 
L 544 3500 
L 1119 3500 
L 1119 1403 
Q 1119 906 1312 657 
Q 1506 409 1894 409 
Q 2359 409 2629 706 
Q 2900 1003 2900 1516 
L 2900 3500 
L 3475 3500 
L 3475 0 
L 2900 0 
L 2900 538 
Q 2691 219 2414 64 
Q 2138 -91 1772 -91 
Q 1169 -91 856 284 
Q 544 659 544 1381 
z
M 1991 3584 
L 1991 3584 
z
" transform="scale(0.015625)"/>
      <path id="DejaVuSans-6b" d="M 581 4863 
L 1159 4863 
L 1159 1991 
L 2875 3500 
L 3609 3500 
L 1753 1863 
L 3688 0 
L 2938 0 
L 1159 1709 
L 1159 0 
L 581 0 
L 581 4863 
z
" transform="scale(0.015625)"/>
      <path id="DejaVuSans-65" d="M 3597 1894 
L 3597 1613 
L 953 1613 
Q 991 1019 1311 708 
Q 1631 397 2203 397 
Q 2534 397 2845 478 
Q 3156 559 3463 722 
L 3463 178 
Q 3153 47 2828 -22 
Q 2503 -91 2169 -91 
Q 1331 -91 842 396 
Q 353 884 353 1716 
Q 353 2575 817 3079 
Q 1281 3584 2069 3584 
Q 2775 3584 3186 3129 
Q 3597 2675 3597 1894 
z
M 3022 2063 
Q 3016 2534 2758 2815 
Q 2500 3097 2075 3097 
Q 1594 3097 1305 2825 
Q 1016 2553 972 2059 
L 3022 2063 
z
" transform="scale(0.015625)"/>
     </defs>
     <use xlink:href="#DejaVuSans-70"/>
     <use xlink:href="#DejaVuSans-72" x="63.476562"/>
     <use xlink:href="#DejaVuSans-61" x="104.589844"/>
     <use xlink:href="#DejaVuSans-67" x="165.869141"/>
     <use xlink:href="#DejaVuSans-20" x="229.345703"/>
     <use xlink:href="#DejaVuSans-6f" x="261.132812"/>
     <use xlink:href="#DejaVuSans-64" x="322.314453"/>
     <use xlink:href="#DejaVuSans-6c" x="385.791016"/>
     <use xlink:href="#DejaVuSans-75" x="413.574219"/>
     <use xlink:href="#DejaVuSans-6b" x="476.953125"/>
     <use xlink:href="#DejaVuSans-65" x="531.238281"/>
    </g>
   </g>
   <g id="legend_1">
    <g id="line2d_16">
     <path d="M 30.78 47.835882 
L 45.78 47.835882 
L 60.78 47.835882 
" style="fill: none; stroke: #2a78d6; stroke-width: 2.2; stroke-linecap: square"/>
    </g>
    <g id="text_10">
     <!-- $H_0$ tačna -->
     <g transform="translate(72.78 53.085882) scale(0.15 -0.15)">
      <defs>
       <path id="DejaVuSans-Oblique-48" d="M 1081 4666 
L 1716 4666 
L 1344 2753 
L 3634 2753 
L 4006 4666 
L 4641 4666 
L 3731 0 
L 3097 0 
L 3531 2222 
L 1241 2222 
L 806 0 
L 172 0 
L 1081 4666 
z
" transform="scale(0.015625)"/>
       <path id="DejaVuSans-74" d="M 1172 4494 
L 1172 3500 
L 2356 3500 
L 2356 3053 
L 1172 3053 
L 1172 1153 
Q 1172 725 1289 603 
Q 1406 481 1766 481 
L 2356 481 
L 2356 0 
L 1766 0 
Q 1100 0 847 248 
Q 594 497 594 1153 
L 594 3053 
L 172 3053 
L 172 3500 
L 594 3500 
L 594 4494 
L 1172 4494 
z
" transform="scale(0.015625)"/>
       <path id="DejaVuSans-10d" d="M 3122 3366 
L 3122 2828 
Q 2878 2963 2633 3030 
Q 2388 3097 2138 3097 
Q 1578 3097 1268 2742 
Q 959 2388 959 1747 
Q 959 1106 1268 751 
Q 1578 397 2138 397 
Q 2388 397 2633 464 
Q 2878 531 3122 666 
L 3122 134 
Q 2881 22 2623 -34 
Q 2366 -91 2075 -91 
Q 1284 -91 818 406 
Q 353 903 353 1747 
Q 353 2603 823 3093 
Q 1294 3584 2113 3584 
Q 2378 3584 2631 3529 
Q 2884 3475 3122 3366 
z
M 1801 3944 
L 1035 5119 
L 1470 5119 
L 2032 4353 
L 2595 5119 
L 3029 5119 
L 2263 3944 
L 1801 3944 
z
" transform="scale(0.015625)"/>
       <path id="DejaVuSans-6e" d="M 3513 2113 
L 3513 0 
L 2938 0 
L 2938 2094 
Q 2938 2591 2744 2837 
Q 2550 3084 2163 3084 
Q 1697 3084 1428 2787 
Q 1159 2491 1159 1978 
L 1159 0 
L 581 0 
L 581 3500 
L 1159 3500 
L 1159 2956 
Q 1366 3272 1645 3428 
Q 1925 3584 2291 3584 
Q 2894 3584 3203 3211 
Q 3513 2838 3513 2113 
z
" transform="scale(0.015625)"/>
      </defs>
      <use xlink:href="#DejaVuSans-Oblique-48" transform="translate(0 0.015625)"/>
      <use xlink:href="#DejaVuSans-30" transform="translate(75.195312 -16.390625) scale(0.7)"/>
      <use xlink:href="#DejaVuSans-20" transform="translate(122.46582 0.015625)"/>
      <use xlink:href="#DejaVuSans-74" transform="translate(154.25293 0.015625)"/>
      <use xlink:href="#DejaVuSans-61" transform="translate(193.461914 0.015625)"/>
      <use xlink:href="#DejaVuSans-10d" transform="translate(254.741211 0.015625)"/>
      <use xlink:href="#DejaVuSans-6e" transform="translate(309.72168 0.015625)"/>
      <use xlink:href="#DejaVuSans-61" transform="translate(373.100586 0.015625)"/>
     </g>
    </g>
    <g id="line2d_17">
     <path d="M 30.78 69.885882 
L 45.78 69.885882 
L 60.78 69.885882 
" style="fill: none; stroke: #eb6834; stroke-width: 2.2; stroke-linecap: square"/>
    </g>
    <g id="text_11">
     <!-- $H_1$ tačna -->
     <g transform="translate(72.78 75.135882) scale(0.15 -0.15)">
      <defs>
       <path id="DejaVuSans-31" d="M 794 531 
L 1825 531 
L 1825 4091 
L 703 3866 
L 703 4441 
L 1819 4666 
L 2450 4666 
L 2450 531 
L 3481 531 
L 3481 0 
L 794 0 
L 794 531 
z
" transform="scale(0.015625)"/>
      </defs>
      <use xlink:href="#DejaVuSans-Oblique-48" transform="translate(0 0.015625)"/>
      <use xlink:href="#DejaVuSans-31" transform="translate(75.195312 -16.390625) scale(0.7)"/>
      <use xlink:href="#DejaVuSans-20" transform="translate(122.46582 0.015625)"/>
      <use xlink:href="#DejaVuSans-74" transform="translate(154.25293 0.015625)"/>
      <use xlink:href="#DejaVuSans-61" transform="translate(193.461914 0.015625)"/>
      <use xlink:href="#DejaVuSans-10d" transform="translate(254.741211 0.015625)"/>
      <use xlink:href="#DejaVuSans-6e" transform="translate(309.72168 0.015625)"/>
      <use xlink:href="#DejaVuSans-61" transform="translate(373.100586 0.015625)"/>
     </g>
    </g>
   </g>
  </g>
 </g>
 <defs>
  <clipPath id="p501a6c2b3b">
   <rect x="17.28" y="28.005414" width="685.44" height="264.514586"/>
  </clipPath>
 </defs>
</svg>
